0
SECTION
2
HEADER
9
$ACADVER
1
AC1008
9
$UCSORG
10
0.0
20
0.0
30
0.0
9
$UCSXDIR
10
1.0
20
0.0
30
0.0
9
$TILEMODE
70
1
9
$UCSYDIR
10
0.0
20
1.0
30
0.0
9
$EXTMIN
10
-149.000000
20
-59.000023
30
-0.000011
9
$EXTMAX
10
149.000000
20
59.000023
30
76.353035
0
ENDSEC
0
SECTION
2
TABLES
0
TABLE
2
LTYPE
70
1
0
LTYPE
2
CONTINUOUS
70
64
3
Solid line
72
65
73
0
40
0.0
0
ENDTAB
0
TABLE
2
LAYER
70
1
0
LAYER
2
TABLE
70
0
62
71
6
CONTINUOUS
0
ENDTAB
0
TABLE
2
STYLE
70
1
0
STYLE
2
STANDARD
70
0
40
0.0
41
1.0
50
0.0
71
0
42
0.2
3
txt
4

0
ENDTAB
0
TABLE
2
UCS
70
0
0
ENDTAB
0
ENDSEC
0
SECTION
2
ENTITIES
0
POLYLINE
8
TABLE
66
1
70
64
71
524
72
876
62
71
0
VERTEX
8
TABLE
10
85.991058
20
-41.359982
30
65.999992
70
192
0
VERTEX
8
TABLE
10
81.253479
20
-41.359982
30
65.999992
70
192
0
VERTEX
8
TABLE
10
81.317780
20
-42.109158
30
65.999992
70
192
0
VERTEX
8
TABLE
10
81.558899
20
-42.782650
30
65.999992
70
192
0
VERTEX
8
TABLE
10
81.932770
20
-43.353512
30
65.999992
70
192
0
VERTEX
8
TABLE
10
82.416534
20
-43.794674
30
65.999992
70
192
0
VERTEX
8
TABLE
10
82.987335
20
-44.079159
30
65.999992
70
192
0
VERTEX
8
TABLE
10
83.622253
20
-44.179989
30
65.999992
70
192
0
VERTEX
8
TABLE
10
84.257202
20
-44.079159
30
65.999992
70
192
0
VERTEX
8
TABLE
10
84.828003
20
-43.794674
30
65.999992
70
192
0
VERTEX
8
TABLE
10
85.311768
20
-43.353512
30
65.999992
70
192
0
VERTEX
8
TABLE
10
85.685669
20
-42.782650
30
65.999992
70
192
0
VERTEX
8
TABLE
10
85.926758
20
-42.109158
30
65.999992
70
192
0
VERTEX
8
TABLE
10
81.253494
20
41.360027
30
65.999985
70
192
0
VERTEX
8
TABLE
10
85.991058
20
41.360027
30
65.999985
70
192
0
VERTEX
8
TABLE
10
85.926758
20
42.109203
30
65.999977
70
192
0
VERTEX
8
TABLE
10
85.685669
20
42.782696
30
65.999977
70
192
0
VERTEX
8
TABLE
10
85.311768
20
43.353527
30
65.999977
70
192
0
VERTEX
8
TABLE
10
84.828011
20
43.794689
30
65.999977
70
192
0
VERTEX
8
TABLE
10
84.257210
20
44.079205
30
65.999977
70
192
0
VERTEX
8
TABLE
10
83.622292
20
44.180035
30
65.999977
70
192
0
VERTEX
8
TABLE
10
82.987343
20
44.079205
30
65.999977
70
192
0
VERTEX
8
TABLE
10
82.416573
20
43.794689
30
65.999977
70
192
0
VERTEX
8
TABLE
10
81.932777
20
43.353527
30
65.999977
70
192
0
VERTEX
8
TABLE
10
81.558907
20
42.782696
30
65.999977
70
192
0
VERTEX
8
TABLE
10
81.317787
20
42.109203
30
65.999977
70
192
0
VERTEX
8
TABLE
10
85.991058
20
-41.359989
30
2.000019
70
192
0
VERTEX
8
TABLE
10
81.253479
20
-41.359989
30
2.000020
70
192
0
VERTEX
8
TABLE
10
81.317780
20
-42.109165
30
2.000020
70
192
0
VERTEX
8
TABLE
10
81.558899
20
-42.782658
30
2.000020
70
192
0
VERTEX
8
TABLE
10
81.932770
20
-43.353519
30
2.000020
70
192
0
VERTEX
8
TABLE
10
82.416534
20
-43.794682
30
2.000020
70
192
0
VERTEX
8
TABLE
10
82.987335
20
-44.079166
30
2.000020
70
192
0
VERTEX
8
TABLE
10
83.622253
20
-44.179996
30
2.000020
70
192
0
VERTEX
8
TABLE
10
84.257202
20
-44.079166
30
2.000020
70
192
0
VERTEX
8
TABLE
10
84.828003
20
-43.794682
30
2.000020
70
192
0
VERTEX
8
TABLE
10
85.311768
20
-43.353519
30
2.000020
70
192
0
VERTEX
8
TABLE
10
85.685669
20
-42.782658
30
2.000019
70
192
0
VERTEX
8
TABLE
10
85.926758
20
-42.109165
30
2.000019
70
192
0
VERTEX
8
TABLE
10
81.253502
20
41.360020
30
1.999999
70
192
0
VERTEX
8
TABLE
10
85.991066
20
41.360020
30
1.999999
70
192
0
VERTEX
8
TABLE
10
85.926765
20
42.109196
30
1.999999
70
192
0
VERTEX
8
TABLE
10
85.685677
20
42.782688
30
1.999999
70
192
0
VERTEX
8
TABLE
10
85.311775
20
43.353519
30
1.999999
70
192
0
VERTEX
8
TABLE
10
84.828018
20
43.794682
30
1.999999
70
192
0
VERTEX
8
TABLE
10
84.257217
20
44.079197
30
1.999999
70
192
0
VERTEX
8
TABLE
10
83.622299
20
44.180027
30
1.999999
70
192
0
VERTEX
8
TABLE
10
82.987350
20
44.079197
30
1.999999
70
192
0
VERTEX
8
TABLE
10
82.416580
20
43.794682
30
1.999999
70
192
0
VERTEX
8
TABLE
10
81.932785
20
43.353519
30
1.999999
70
192
0
VERTEX
8
TABLE
10
81.558914
20
42.782688
30
1.999999
70
192
0
VERTEX
8
TABLE
10
81.317795
20
42.109196
30
1.999999
70
192
0
VERTEX
8
TABLE
10
85.991058
20
-41.359989
30
0.000019
70
192
0
VERTEX
8
TABLE
10
81.253479
20
-41.359989
30
0.000020
70
192
0
VERTEX
8
TABLE
10
81.317780
20
-42.109165
30
0.000020
70
192
0
VERTEX
8
TABLE
10
81.558899
20
-42.782658
30
0.000020
70
192
0
VERTEX
8
TABLE
10
81.932770
20
-43.353519
30
0.000020
70
192
0
VERTEX
8
TABLE
10
82.416534
20
-43.794682
30
0.000020
70
192
0
VERTEX
8
TABLE
10
82.987335
20
-44.079166
30
0.000020
70
192
0
VERTEX
8
TABLE
10
83.622253
20
-44.179996
30
0.000020
70
192
0
VERTEX
8
TABLE
10
84.257202
20
-44.079166
30
0.000020
70
192
0
VERTEX
8
TABLE
10
84.828003
20
-43.794682
30
0.000020
70
192
0
VERTEX
8
TABLE
10
85.311768
20
-43.353519
30
0.000020
70
192
0
VERTEX
8
TABLE
10
85.685669
20
-42.782658
30
0.000020
70
192
0
VERTEX
8
TABLE
10
85.926758
20
-42.109165
30
0.000019
70
192
0
VERTEX
8
TABLE
10
81.253502
20
41.360020
30
-0.000001
70
192
0
VERTEX
8
TABLE
10
85.991066
20
41.360020
30
-0.000001
70
192
0
VERTEX
8
TABLE
10
85.926765
20
42.109196
30
-0.000001
70
192
0
VERTEX
8
TABLE
10
85.685677
20
42.782688
30
-0.000001
70
192
0
VERTEX
8
TABLE
10
85.311775
20
43.353519
30
-0.000001
70
192
0
VERTEX
8
TABLE
10
84.828018
20
43.794682
30
-0.000001
70
192
0
VERTEX
8
TABLE
10
84.257217
20
44.079197
30
-0.000001
70
192
0
VERTEX
8
TABLE
10
83.622299
20
44.180027
30
-0.000001
70
192
0
VERTEX
8
TABLE
10
82.987350
20
44.079197
30
-0.000001
70
192
0
VERTEX
8
TABLE
10
82.416580
20
43.794682
30
-0.000001
70
192
0
VERTEX
8
TABLE
10
81.932785
20
43.353519
30
-0.000001
70
192
0
VERTEX
8
TABLE
10
81.558914
20
42.782688
30
-0.000001
70
192
0
VERTEX
8
TABLE
10
81.317795
20
42.109196
30
-0.000001
70
192
0
VERTEX
8
TABLE
10
48.987846
20
-22.731419
30
66.000000
70
192
0
VERTEX
8
TABLE
10
46.619057
20
-18.628553
30
66.000000
70
192
0
VERTEX
8
TABLE
10
46.002403
20
-19.058830
30
66.000000
70
192
0
VERTEX
8
TABLE
10
45.539703
20
-19.604391
30
65.999992
70
192
0
VERTEX
8
TABLE
10
45.232258
20
-20.213604
30
65.999992
70
192
0
VERTEX
8
TABLE
10
45.092083
20
-20.853138
30
65.999992
70
192
0
VERTEX
8
TABLE
10
45.131111
20
-21.489708
30
65.999992
70
192
0
VERTEX
8
TABLE
10
45.361248
20
-22.089979
30
65.999992
70
192
0
VERTEX
8
TABLE
10
45.766045
20
-22.589445
30
65.999992
70
192
0
VERTEX
8
TABLE
10
46.297817
20
-22.941530
30
65.999992
70
192
0
VERTEX
8
TABLE
10
46.921757
20
-23.139900
30
65.999992
70
192
0
VERTEX
8
TABLE
10
47.603088
20
-23.178278
30
65.999992
70
192
0
VERTEX
8
TABLE
10
48.306896
20
-23.050320
30
65.999992
70
192
0
VERTEX
8
TABLE
10
118.256706
20
22.731430
30
65.999992
70
192
0
VERTEX
8
TABLE
10
120.625481
20
18.628580
30
65.999985
70
192
0
VERTEX
8
TABLE
10
121.242142
20
19.058853
30
65.999977
70
192
0
VERTEX
8
TABLE
10
121.704857
20
19.604389
30
65.999977
70
192
0
VERTEX
8
TABLE
10
122.012260
20
20.213612
30
65.999977
70
192
0
VERTEX
8
TABLE
10
122.152443
20
20.853140
30
65.999977
70
192
0
VERTEX
8
TABLE
10
122.113434
20
21.489725
30
65.999977
70
192
0
VERTEX
8
TABLE
10
121.883301
20
22.089994
30
65.999977
70
192
0
VERTEX
8
TABLE
10
121.478500
20
22.589462
30
65.999977
70
192
0
VERTEX
8
TABLE
10
120.946724
20
22.941505
30
65.999977
70
192
0
VERTEX
8
TABLE
10
120.322769
20
23.139904
30
65.999977
70
192
0
VERTEX
8
TABLE
10
119.641479
20
23.178268
30
65.999977
70
192
0
VERTEX
8
TABLE
10
118.937653
20
23.050339
30
65.999985
70
192
0
VERTEX
8
TABLE
10
48.987846
20
-22.731426
30
2.000019
70
192
0
VERTEX
8
TABLE
10
46.619057
20
-18.628563
30
2.000019
70
192
0
VERTEX
8
TABLE
10
46.002399
20
-19.058838
30
2.000019
70
192
0
VERTEX
8
TABLE
10
45.539700
20
-19.604401
30
2.000019
70
192
0
VERTEX
8
TABLE
10
45.232254
20
-20.213614
30
2.000019
70
192
0
VERTEX
8
TABLE
10
45.092079
20
-20.853146
30
2.000019
70
192
0
VERTEX
8
TABLE
10
45.131107
20
-21.489717
30
2.000019
70
192
0
VERTEX
8
TABLE
10
45.361244
20
-22.089987
30
2.000019
70
192
0
VERTEX
8
TABLE
10
45.766041
20
-22.589455
30
2.000019
70
192
0
VERTEX
8
TABLE
10
46.297813
20
-22.941540
30
2.000019
70
192
0
VERTEX
8
TABLE
10
46.921753
20
-23.139910
30
2.000019
70
192
0
VERTEX
8
TABLE
10
47.603085
20
-23.178286
30
2.000019
70
192
0
VERTEX
8
TABLE
10
48.306889
20
-23.050329
30
2.000019
70
192
0
VERTEX
8
TABLE
10
118.256699
20
22.731421
30
1.999999
70
192
0
VERTEX
8
TABLE
10
120.625481
20
18.628571
30
1.999999
70
192
0
VERTEX
8
TABLE
10
121.242134
20
19.058844
30
1.999999
70
192
0
VERTEX
8
TABLE
10
121.704857
20
19.604380
30
1.999999
70
192
0
VERTEX
8
TABLE
10
122.012260
20
20.213604
30
1.999999
70
192
0
VERTEX
8
TABLE
10
122.152435
20
20.853130
30
1.999999
70
192
0
VERTEX
8
TABLE
10
122.113434
20
21.489716
30
1.999999
70
192
0
VERTEX
8
TABLE
10
121.883301
20
22.089987
30
1.999999
70
192
0
VERTEX
8
TABLE
10
121.478500
20
22.589453
30
1.999999
70
192
0
VERTEX
8
TABLE
10
120.946716
20
22.941496
30
1.999999
70
192
0
VERTEX
8
TABLE
10
120.322762
20
23.139894
30
1.999999
70
192
0
VERTEX
8
TABLE
10
119.641472
20
23.178261
30
1.999999
70
192
0
VERTEX
8
TABLE
10
118.937653
20
23.050329
30
1.999999
70
192
0
VERTEX
8
TABLE
10
48.987846
20
-22.731426
30
0.000019
70
192
0
VERTEX
8
TABLE
10
46.619057
20
-18.628563
30
0.000019
70
192
0
VERTEX
8
TABLE
10
46.002399
20
-19.058838
30
0.000019
70
192
0
VERTEX
8
TABLE
10
45.539700
20
-19.604401
30
0.000019
70
192
0
VERTEX
8
TABLE
10
45.232254
20
-20.213614
30
0.000019
70
192
0
VERTEX
8
TABLE
10
45.092079
20
-20.853146
30
0.000019
70
192
0
VERTEX
8
TABLE
10
45.131107
20
-21.489717
30
0.000019
70
192
0
VERTEX
8
TABLE
10
45.361244
20
-22.089987
30
0.000019
70
192
0
VERTEX
8
TABLE
10
45.766041
20
-22.589455
30
0.000019
70
192
0
VERTEX
8
TABLE
10
46.297813
20
-22.941540
30
0.000019
70
192
0
VERTEX
8
TABLE
10
46.921753
20
-23.139908
30
0.000019
70
192
0
VERTEX
8
TABLE
10
47.603085
20
-23.178286
30
0.000019
70
192
0
VERTEX
8
TABLE
10
48.306889
20
-23.050329
30
0.000019
70
192
0
VERTEX
8
TABLE
10
118.256699
20
22.731421
30
-0.000001
70
192
0
VERTEX
8
TABLE
10
120.625481
20
18.628571
30
-0.000000
70
192
0
VERTEX
8
TABLE
10
121.242134
20
19.058844
30
-0.000000
70
192
0
VERTEX
8
TABLE
10
121.704857
20
19.604380
30
-0.000001
70
192
0
VERTEX
8
TABLE
10
122.012260
20
20.213604
30
-0.000001
70
192
0
VERTEX
8
TABLE
10
122.152435
20
20.853130
30
-0.000001
70
192
0
VERTEX
8
TABLE
10
122.113434
20
21.489716
30
-0.000001
70
192
0
VERTEX
8
TABLE
10
121.883301
20
22.089987
30
-0.000001
70
192
0
VERTEX
8
TABLE
10
121.478500
20
22.589453
30
-0.000001
70
192
0
VERTEX
8
TABLE
10
120.946716
20
22.941496
30
-0.000001
70
192
0
VERTEX
8
TABLE
10
120.322762
20
23.139894
30
-0.000001
70
192
0
VERTEX
8
TABLE
10
119.641472
20
23.178261
30
-0.000001
70
192
0
VERTEX
8
TABLE
10
118.937653
20
23.050329
30
-0.000001
70
192
0
VERTEX
8
TABLE
10
46.619061
20
18.628578
30
66.000000
70
192
0
VERTEX
8
TABLE
10
48.987850
20
22.731441
30
66.000000
70
192
0
VERTEX
8
TABLE
10
48.306896
20
23.050343
30
65.999992
70
192
0
VERTEX
8
TABLE
10
47.603073
20
23.178274
30
65.999992
70
192
0
VERTEX
8
TABLE
10
46.921757
20
23.139923
30
65.999992
70
192
0
VERTEX
8
TABLE
10
46.297817
20
22.941549
30
65.999992
70
192
0
VERTEX
8
TABLE
10
45.766045
20
22.589464
30
65.999992
70
192
0
VERTEX
8
TABLE
10
45.361263
20
22.090025
30
66.000000
70
192
0
VERTEX
8
TABLE
10
45.131111
20
21.489727
30
66.000000
70
192
0
VERTEX
8
TABLE
10
45.092083
20
20.853157
30
65.999992
70
192
0
VERTEX
8
TABLE
10
45.232258
20
20.213623
30
65.999992
70
192
0
VERTEX
8
TABLE
10
45.539688
20
19.604385
30
65.999992
70
192
0
VERTEX
8
TABLE
10
46.002403
20
19.058849
30
65.999992
70
192
0
VERTEX
8
TABLE
10
120.625465
20
-18.628586
30
65.999992
70
192
0
VERTEX
8
TABLE
10
118.256683
20
-22.731436
30
65.999992
70
192
0
VERTEX
8
TABLE
10
118.937637
20
-23.050339
30
65.999977
70
192
0
VERTEX
8
TABLE
10
119.641441
20
-23.178295
30
65.999977
70
192
0
VERTEX
8
TABLE
10
120.322746
20
-23.139904
30
65.999977
70
192
0
VERTEX
8
TABLE
10
120.946686
20
-22.941538
30
65.999977
70
192
0
VERTEX
8
TABLE
10
121.478477
20
-22.589468
30
65.999977
70
192
0
VERTEX
8
TABLE
10
121.883263
20
-22.090029
30
65.999977
70
192
0
VERTEX
8
TABLE
10
122.113411
20
-21.489731
30
65.999977
70
192
0
VERTEX
8
TABLE
10
122.152405
20
-20.853172
30
65.999977
70
192
0
VERTEX
8
TABLE
10
122.012245
20
-20.213612
30
65.999977
70
192
0
VERTEX
8
TABLE
10
121.704826
20
-19.604416
30
65.999977
70
192
0
VERTEX
8
TABLE
10
121.242119
20
-19.058853
30
65.999985
70
192
0
VERTEX
8
TABLE
10
46.619049
20
18.628576
30
2.000017
70
192
0
VERTEX
8
TABLE
10
48.987839
20
22.731440
30
2.000017
70
192
0
VERTEX
8
TABLE
10
48.306885
20
23.050343
30
2.000017
70
192
0
VERTEX
8
TABLE
10
47.603062
20
23.178272
30
2.000017
70
192
0
VERTEX
8
TABLE
10
46.921745
20
23.139923
30
2.000017
70
192
0
VERTEX
8
TABLE
10
46.297806
20
22.941549
30
2.000017
70
192
0
VERTEX
8
TABLE
10
45.766033
20
22.589464
30
2.000017
70
192
0
VERTEX
8
TABLE
10
45.361252
20
22.090023
30
2.000017
70
192
0
VERTEX
8
TABLE
10
45.131100
20
21.489727
30
2.000017
70
192
0
VERTEX
8
TABLE
10
45.092072
20
20.853157
30
2.000017
70
192
0
VERTEX
8
TABLE
10
45.232246
20
20.213623
30
2.000017
70
192
0
VERTEX
8
TABLE
10
45.539677
20
19.604383
30
2.000017
70
192
0
VERTEX
8
TABLE
10
46.002392
20
19.058849
30
2.000017
70
192
0
VERTEX
8
TABLE
10
120.625458
20
-18.628588
30
2.000002
70
192
0
VERTEX
8
TABLE
10
118.256676
20
-22.731438
30
2.000002
70
192
0
VERTEX
8
TABLE
10
118.937630
20
-23.050341
30
2.000002
70
192
0
VERTEX
8
TABLE
10
119.641434
20
-23.178297
30
2.000002
70
192
0
VERTEX
8
TABLE
10
120.322739
20
-23.139904
30
2.000002
70
192
0
VERTEX
8
TABLE
10
120.946678
20
-22.941540
30
2.000002
70
192
0
VERTEX
8
TABLE
10
121.478470
20
-22.589470
30
2.000002
70
192
0
VERTEX
8
TABLE
10
121.883255
20
-22.090029
30
2.000002
70
192
0
VERTEX
8
TABLE
10
122.113403
20
-21.489733
30
2.000002
70
192
0
VERTEX
8
TABLE
10
122.152397
20
-20.853174
30
2.000002
70
192
0
VERTEX
8
TABLE
10
122.012238
20
-20.213614
30
2.000002
70
192
0
VERTEX
8
TABLE
10
121.704819
20
-19.604416
30
2.000002
70
192
0
VERTEX
8
TABLE
10
121.242111
20
-19.058855
30
2.000002
70
192
0
VERTEX
8
TABLE
10
46.619049
20
18.628576
30
0.000017
70
192
0
VERTEX
8
TABLE
10
48.987839
20
22.731440
30
0.000017
70
192
0
VERTEX
8
TABLE
10
48.306885
20
23.050343
30
0.000017
70
192
0
VERTEX
8
TABLE
10
47.603062
20
23.178272
30
0.000017
70
192
0
VERTEX
8
TABLE
10
46.921745
20
23.139923
30
0.000017
70
192
0
VERTEX
8
TABLE
10
46.297806
20
22.941549
30
0.000017
70
192
0
VERTEX
8
TABLE
10
45.766033
20
22.589464
30
0.000017
70
192
0
VERTEX
8
TABLE
10
45.361252
20
22.090023
30
0.000017
70
192
0
VERTEX
8
TABLE
10
45.131100
20
21.489727
30
0.000017
70
192
0
VERTEX
8
TABLE
10
45.092072
20
20.853157
30
0.000017
70
192
0
VERTEX
8
TABLE
10
45.232246
20
20.213623
30
0.000017
70
192
0
VERTEX
8
TABLE
10
45.539677
20
19.604383
30
0.000017
70
192
0
VERTEX
8
TABLE
10
46.002392
20
19.058849
30
0.000017
70
192
0
VERTEX
8
TABLE
10
120.625458
20
-18.628588
30
0.000002
70
192
0
VERTEX
8
TABLE
10
118.256676
20
-22.731438
30
0.000002
70
192
0
VERTEX
8
TABLE
10
118.937630
20
-23.050341
30
0.000002
70
192
0
VERTEX
8
TABLE
10
119.641434
20
-23.178297
30
0.000002
70
192
0
VERTEX
8
TABLE
10
120.322739
20
-23.139904
30
0.000002
70
192
0
VERTEX
8
TABLE
10
120.946678
20
-22.941540
30
0.000002
70
192
0
VERTEX
8
TABLE
10
121.478470
20
-22.589470
30
0.000002
70
192
0
VERTEX
8
TABLE
10
121.883255
20
-22.090029
30
0.000002
70
192
0
VERTEX
8
TABLE
10
122.113411
20
-21.489733
30
0.000002
70
192
0
VERTEX
8
TABLE
10
122.152397
20
-20.853174
30
0.000002
70
192
0
VERTEX
8
TABLE
10
122.012238
20
-20.213614
30
0.000002
70
192
0
VERTEX
8
TABLE
10
121.704819
20
-19.604416
30
0.000002
70
192
0
VERTEX
8
TABLE
10
121.242111
20
-19.058855
30
0.000002
70
192
0
VERTEX
8
TABLE
10
-85.991058
20
-41.359982
30
66.000000
70
192
0
VERTEX
8
TABLE
10
-81.253479
20
-41.359982
30
66.000000
70
192
0
VERTEX
8
TABLE
10
-81.317780
20
-42.109158
30
66.000000
70
192
0
VERTEX
8
TABLE
10
-81.558899
20
-42.782650
30
66.000000
70
192
0
VERTEX
8
TABLE
10
-81.932770
20
-43.353512
30
66.000000
70
192
0
VERTEX
8
TABLE
10
-82.416534
20
-43.794674
30
66.000000
70
192
0
VERTEX
8
TABLE
10
-82.987335
20
-44.079159
30
65.999992
70
192
0
VERTEX
8
TABLE
10
-83.622253
20
-44.179989
30
65.999992
70
192
0
VERTEX
8
TABLE
10
-84.257202
20
-44.079159
30
65.999992
70
192
0
VERTEX
8
TABLE
10
-84.828003
20
-43.794674
30
65.999992
70
192
0
VERTEX
8
TABLE
10
-85.311768
20
-43.353512
30
65.999992
70
192
0
VERTEX
8
TABLE
10
-85.685669
20
-42.782650
30
65.999992
70
192
0
VERTEX
8
TABLE
10
-85.926758
20
-42.109158
30
65.999992
70
192
0
VERTEX
8
TABLE
10
-81.253494
20
41.360027
30
65.999992
70
192
0
VERTEX
8
TABLE
10
-85.991058
20
41.360027
30
65.999985
70
192
0
VERTEX
8
TABLE
10
-85.926758
20
42.109203
30
65.999977
70
192
0
VERTEX
8
TABLE
10
-85.685669
20
42.782696
30
65.999977
70
192
0
VERTEX
8
TABLE
10
-85.311768
20
43.353527
30
65.999977
70
192
0
VERTEX
8
TABLE
10
-84.828011
20
43.794689
30
65.999977
70
192
0
VERTEX
8
TABLE
10
-84.257210
20
44.079205
30
65.999977
70
192
0
VERTEX
8
TABLE
10
-83.622292
20
44.180035
30
65.999977
70
192
0
VERTEX
8
TABLE
10
-82.987343
20
44.079205
30
65.999977
70
192
0
VERTEX
8
TABLE
10
-82.416573
20
43.794689
30
65.999977
70
192
0
VERTEX
8
TABLE
10
-81.932777
20
43.353527
30
65.999977
70
192
0
VERTEX
8
TABLE
10
-81.558907
20
42.782696
30
65.999977
70
192
0
VERTEX
8
TABLE
10
-81.317787
20
42.109203
30
65.999985
70
192
0
VERTEX
8
TABLE
10
-85.991058
20
-41.359989
30
2.000017
70
192
0
VERTEX
8
TABLE
10
-81.253479
20
-41.359989
30
2.000017
70
192
0
VERTEX
8
TABLE
10
-81.317780
20
-42.109165
30
2.000017
70
192
0
VERTEX
8
TABLE
10
-81.558899
20
-42.782658
30
2.000017
70
192
0
VERTEX
8
TABLE
10
-81.932770
20
-43.353519
30
2.000017
70
192
0
VERTEX
8
TABLE
10
-82.416534
20
-43.794682
30
2.000017
70
192
0
VERTEX
8
TABLE
10
-82.987335
20
-44.079166
30
2.000017
70
192
0
VERTEX
8
TABLE
10
-83.622253
20
-44.179996
30
2.000017
70
192
0
VERTEX
8
TABLE
10
-84.257202
20
-44.079166
30
2.000017
70
192
0
VERTEX
8
TABLE
10
-84.828003
20
-43.794682
30
2.000017
70
192
0
VERTEX
8
TABLE
10
-85.311768
20
-43.353519
30
2.000017
70
192
0
VERTEX
8
TABLE
10
-85.685669
20
-42.782658
30
2.000017
70
192
0
VERTEX
8
TABLE
10
-85.926758
20
-42.109165
30
2.000017
70
192
0
VERTEX
8
TABLE
10
-81.253502
20
41.360020
30
1.999996
70
192
0
VERTEX
8
TABLE
10
-85.991066
20
41.360020
30
1.999997
70
192
0
VERTEX
8
TABLE
10
-85.926765
20
42.109196
30
1.999997
70
192
0
VERTEX
8
TABLE
10
-85.685677
20
42.782688
30
1.999997
70
192
0
VERTEX
8
TABLE
10
-85.311775
20
43.353519
30
1.999996
70
192
0
VERTEX
8
TABLE
10
-84.828018
20
43.794682
30
1.999996
70
192
0
VERTEX
8
TABLE
10
-84.257217
20
44.079197
30
1.999996
70
192
0
VERTEX
8
TABLE
10
-83.622299
20
44.180027
30
1.999996
70
192
0
VERTEX
8
TABLE
10
-82.987350
20
44.079197
30
1.999996
70
192
0
VERTEX
8
TABLE
10
-82.416580
20
43.794682
30
1.999996
70
192
0
VERTEX
8
TABLE
10
-81.932785
20
43.353519
30
1.999996
70
192
0
VERTEX
8
TABLE
10
-81.558914
20
42.782688
30
1.999996
70
192
0
VERTEX
8
TABLE
10
-81.317795
20
42.109196
30
1.999996
70
192
0
VERTEX
8
TABLE
10
-85.991058
20
-41.359989
30
0.000017
70
192
0
VERTEX
8
TABLE
10
-81.253479
20
-41.359989
30
0.000017
70
192
0
VERTEX
8
TABLE
10
-81.317780
20
-42.109165
30
0.000017
70
192
0
VERTEX
8
TABLE
10
-81.558899
20
-42.782658
30
0.000017
70
192
0
VERTEX
8
TABLE
10
-81.932770
20
-43.353519
30
0.000017
70
192
0
VERTEX
8
TABLE
10
-82.416534
20
-43.794682
30
0.000017
70
192
0
VERTEX
8
TABLE
10
-82.987335
20
-44.079166
30
0.000017
70
192
0
VERTEX
8
TABLE
10
-83.622253
20
-44.179996
30
0.000017
70
192
0
VERTEX
8
TABLE
10
-84.257202
20
-44.079166
30
0.000017
70
192
0
VERTEX
8
TABLE
10
-84.828003
20
-43.794682
30
0.000017
70
192
0
VERTEX
8
TABLE
10
-85.311768
20
-43.353519
30
0.000017
70
192
0
VERTEX
8
TABLE
10
-85.685669
20
-42.782658
30
0.000017
70
192
0
VERTEX
8
TABLE
10
-85.926758
20
-42.109165
30
0.000017
70
192
0
VERTEX
8
TABLE
10
-81.253502
20
41.360020
30
-0.000003
70
192
0
VERTEX
8
TABLE
10
-85.991066
20
41.360020
30
-0.000003
70
192
0
VERTEX
8
TABLE
10
-85.926765
20
42.109196
30
-0.000003
70
192
0
VERTEX
8
TABLE
10
-85.685677
20
42.782688
30
-0.000003
70
192
0
VERTEX
8
TABLE
10
-85.311775
20
43.353519
30
-0.000003
70
192
0
VERTEX
8
TABLE
10
-84.828018
20
43.794682
30
-0.000003
70
192
0
VERTEX
8
TABLE
10
-84.257217
20
44.079197
30
-0.000003
70
192
0
VERTEX
8
TABLE
10
-83.622299
20
44.180027
30
-0.000004
70
192
0
VERTEX
8
TABLE
10
-82.987350
20
44.079197
30
-0.000004
70
192
0
VERTEX
8
TABLE
10
-82.416580
20
43.794682
30
-0.000004
70
192
0
VERTEX
8
TABLE
10
-81.932785
20
43.353519
30
-0.000004
70
192
0
VERTEX
8
TABLE
10
-81.558914
20
42.782688
30
-0.000003
70
192
0
VERTEX
8
TABLE
10
-81.317795
20
42.109196
30
-0.000003
70
192
0
VERTEX
8
TABLE
10
-48.987850
20
-22.731421
30
66.000000
70
192
0
VERTEX
8
TABLE
10
-46.619057
20
-18.628555
30
66.000000
70
192
0
VERTEX
8
TABLE
10
-46.002403
20
-19.058830
30
66.000000
70
192
0
VERTEX
8
TABLE
10
-45.539703
20
-19.604391
30
66.000000
70
192
0
VERTEX
8
TABLE
10
-45.232258
20
-20.213604
30
66.000000
70
192
0
VERTEX
8
TABLE
10
-45.092083
20
-20.853138
30
66.000000
70
192
0
VERTEX
8
TABLE
10
-45.131111
20
-21.489708
30
66.000000
70
192
0
VERTEX
8
TABLE
10
-45.361248
20
-22.089979
30
66.000000
70
192
0
VERTEX
8
TABLE
10
-45.766045
20
-22.589445
30
66.000000
70
192
0
VERTEX
8
TABLE
10
-46.297817
20
-22.941530
30
66.000000
70
192
0
VERTEX
8
TABLE
10
-46.921757
20
-23.139902
30
66.000000
70
192
0
VERTEX
8
TABLE
10
-47.603088
20
-23.178280
30
66.000000
70
192
0
VERTEX
8
TABLE
10
-48.306896
20
-23.050322
30
66.000000
70
192
0
VERTEX
8
TABLE
10
-118.256706
20
22.731428
30
65.999992
70
192
0
VERTEX
8
TABLE
10
-120.625481
20
18.628578
30
65.999992
70
192
0
VERTEX
8
TABLE
10
-121.242142
20
19.058851
30
65.999985
70
192
0
VERTEX
8
TABLE
10
-121.704857
20
19.604387
30
65.999985
70
192
0
VERTEX
8
TABLE
10
-122.012260
20
20.213610
30
65.999985
70
192
0
VERTEX
8
TABLE
10
-122.152443
20
20.853138
30
65.999985
70
192
0
VERTEX
8
TABLE
10
-122.113434
20
21.489723
30
65.999985
70
192
0
VERTEX
8
TABLE
10
-121.883301
20
22.089993
30
65.999985
70
192
0
VERTEX
8
TABLE
10
-121.478500
20
22.589460
30
65.999985
70
192
0
VERTEX
8
TABLE
10
-120.946724
20
22.941504
30
65.999985
70
192
0
VERTEX
8
TABLE
10
-120.322769
20
23.139902
30
65.999985
70
192
0
VERTEX
8
TABLE
10
-119.641479
20
23.178267
30
65.999985
70
192
0
VERTEX
8
TABLE
10
-118.937653
20
23.050337
30
65.999985
70
192
0
VERTEX
8
TABLE
10
-48.987846
20
-22.731428
30
2.000022
70
192
0
VERTEX
8
TABLE
10
-46.619057
20
-18.628565
30
2.000022
70
192
0
VERTEX
8
TABLE
10
-46.002399
20
-19.058838
30
2.000022
70
192
0
VERTEX
8
TABLE
10
-45.539703
20
-19.604401
30
2.000022
70
192
0
VERTEX
8
TABLE
10
-45.232258
20
-20.213614
30
2.000022
70
192
0
VERTEX
8
TABLE
10
-45.092083
20
-20.853146
30
2.000022
70
192
0
VERTEX
8
TABLE
10
-45.131111
20
-21.489717
30
2.000022
70
192
0
VERTEX
8
TABLE
10
-45.361248
20
-22.089987
30
2.000022
70
192
0
VERTEX
8
TABLE
10
-45.766045
20
-22.589455
30
2.000022
70
192
0
VERTEX
8
TABLE
10
-46.297817
20
-22.941540
30
2.000022
70
192
0
VERTEX
8
TABLE
10
-46.921757
20
-23.139912
30
2.000022
70
192
0
VERTEX
8
TABLE
10
-47.603085
20
-23.178288
30
2.000022
70
192
0
VERTEX
8
TABLE
10
-48.306889
20
-23.050331
30
2.000022
70
192
0
VERTEX
8
TABLE
10
-118.256691
20
22.731419
30
1.999999
70
192
0
VERTEX
8
TABLE
10
-120.625473
20
18.628569
30
1.999999
70
192
0
VERTEX
8
TABLE
10
-121.242126
20
19.058842
30
1.999999
70
192
0
VERTEX
8
TABLE
10
-121.704849
20
19.604378
30
1.999999
70
192
0
VERTEX
8
TABLE
10
-122.012253
20
20.213602
30
1.999999
70
192
0
VERTEX
8
TABLE
10
-122.152428
20
20.853128
30
1.999999
70
192
0
VERTEX
8
TABLE
10
-122.113426
20
21.489714
30
1.999999
70
192
0
VERTEX
8
TABLE
10
-121.883293
20
22.089985
30
1.999999
70
192
0
VERTEX
8
TABLE
10
-121.478493
20
22.589451
30
1.999999
70
192
0
VERTEX
8
TABLE
10
-120.946709
20
22.941494
30
1.999999
70
192
0
VERTEX
8
TABLE
10
-120.322754
20
23.139893
30
1.999999
70
192
0
VERTEX
8
TABLE
10
-119.641464
20
23.178259
30
1.999999
70
192
0
VERTEX
8
TABLE
10
-118.937645
20
23.050327
30
1.999999
70
192
0
VERTEX
8
TABLE
10
-48.987846
20
-22.731428
30
0.000022
70
192
0
VERTEX
8
TABLE
10
-46.619057
20
-18.628565
30
0.000022
70
192
0
VERTEX
8
TABLE
10
-46.002399
20
-19.058838
30
0.000022
70
192
0
VERTEX
8
TABLE
10
-45.539700
20
-19.604401
30
0.000022
70
192
0
VERTEX
8
TABLE
10
-45.232254
20
-20.213614
30
0.000022
70
192
0
VERTEX
8
TABLE
10
-45.092083
20
-20.853146
30
0.000022
70
192
0
VERTEX
8
TABLE
10
-45.131111
20
-21.489717
30
0.000022
70
192
0
VERTEX
8
TABLE
10
-45.361248
20
-22.089987
30
0.000022
70
192
0
VERTEX
8
TABLE
10
-45.766045
20
-22.589455
30
0.000022
70
192
0
VERTEX
8
TABLE
10
-46.297817
20
-22.941540
30
0.000022
70
192
0
VERTEX
8
TABLE
10
-46.921757
20
-23.139910
30
0.000022
70
192
0
VERTEX
8
TABLE
10
-47.603088
20
-23.178288
30
0.000022
70
192
0
VERTEX
8
TABLE
10
-48.306892
20
-23.050331
30
0.000022
70
192
0
VERTEX
8
TABLE
10
-118.256699
20
22.731419
30
-0.000001
70
192
0
VERTEX
8
TABLE
10
-120.625473
20
18.628569
30
-0.000001
70
192
0
VERTEX
8
TABLE
10
-121.242126
20
19.058842
30
-0.000001
70
192
0
VERTEX
8
TABLE
10
-121.704849
20
19.604378
30
-0.000001
70
192
0
VERTEX
8
TABLE
10
-122.012253
20
20.213602
30
-0.000001
70
192
0
VERTEX
8
TABLE
10
-122.152428
20
20.853128
30
-0.000001
70
192
0
VERTEX
8
TABLE
10
-122.113426
20
21.489714
30
-0.000001
70
192
0
VERTEX
8
TABLE
10
-121.883293
20
22.089985
30
-0.000001
70
192
0
VERTEX
8
TABLE
10
-121.478493
20
22.589451
30
-0.000001
70
192
0
VERTEX
8
TABLE
10
-120.946709
20
22.941494
30
-0.000001
70
192
0
VERTEX
8
TABLE
10
-120.322754
20
23.139893
30
-0.000001
70
192
0
VERTEX
8
TABLE
10
-119.641464
20
23.178259
30
-0.000001
70
192
0
VERTEX
8
TABLE
10
-118.937645
20
23.050327
30
-0.000001
70
192
0
VERTEX
8
TABLE
10
-46.619061
20
18.628576
30
66.000000
70
192
0
VERTEX
8
TABLE
10
-48.987850
20
22.731440
30
66.000000
70
192
0
VERTEX
8
TABLE
10
-48.306896
20
23.050341
30
66.000000
70
192
0
VERTEX
8
TABLE
10
-47.603073
20
23.178272
30
66.000000
70
192
0
VERTEX
8
TABLE
10
-46.921757
20
23.139921
30
66.000000
70
192
0
VERTEX
8
TABLE
10
-46.297817
20
22.941549
30
66.000000
70
192
0
VERTEX
8
TABLE
10
-45.766045
20
22.589464
30
66.000000
70
192
0
VERTEX
8
TABLE
10
-45.361263
20
22.090025
30
66.000000
70
192
0
VERTEX
8
TABLE
10
-45.131111
20
21.489727
30
66.000000
70
192
0
VERTEX
8
TABLE
10
-45.092083
20
20.853157
30
66.000000
70
192
0
VERTEX
8
TABLE
10
-45.232258
20
20.213623
30
66.000000
70
192
0
VERTEX
8
TABLE
10
-45.539688
20
19.604385
30
66.000000
70
192
0
VERTEX
8
TABLE
10
-46.002403
20
19.058849
30
66.000000
70
192
0
VERTEX
8
TABLE
10
-120.625465
20
-18.628588
30
65.999992
70
192
0
VERTEX
8
TABLE
10
-118.256683
20
-22.731438
30
65.999992
70
192
0
VERTEX
8
TABLE
10
-118.937637
20
-23.050341
30
65.999985
70
192
0
VERTEX
8
TABLE
10
-119.641441
20
-23.178297
30
65.999985
70
192
0
VERTEX
8
TABLE
10
-120.322746
20
-23.139906
30
65.999985
70
192
0
VERTEX
8
TABLE
10
-120.946686
20
-22.941540
30
65.999985
70
192
0
VERTEX
8
TABLE
10
-121.478477
20
-22.589470
30
65.999985
70
192
0
VERTEX
8
TABLE
10
-121.883263
20
-22.090031
30
65.999985
70
192
0
VERTEX
8
TABLE
10
-122.113411
20
-21.489733
30
65.999985
70
192
0
VERTEX
8
TABLE
10
-122.152405
20
-20.853174
30
65.999985
70
192
0
VERTEX
8
TABLE
10
-122.012245
20
-20.213614
30
65.999985
70
192
0
VERTEX
8
TABLE
10
-121.704826
20
-19.604418
30
65.999985
70
192
0
VERTEX
8
TABLE
10
-121.242119
20
-19.058855
30
65.999985
70
192
0
VERTEX
8
TABLE
10
-46.619049
20
18.628574
30
2.000020
70
192
0
VERTEX
8
TABLE
10
-48.987839
20
22.731438
30
2.000020
70
192
0
VERTEX
8
TABLE
10
-48.306885
20
23.050341
30
2.000020
70
192
0
VERTEX
8
TABLE
10
-47.603062
20
23.178270
30
2.000019
70
192
0
VERTEX
8
TABLE
10
-46.921745
20
23.139921
30
2.000019
70
192
0
VERTEX
8
TABLE
10
-46.297806
20
22.941549
30
2.000019
70
192
0
VERTEX
8
TABLE
10
-45.766033
20
22.589464
30
2.000019
70
192
0
VERTEX
8
TABLE
10
-45.361252
20
22.090023
30
2.000019
70
192
0
VERTEX
8
TABLE
10
-45.131100
20
21.489727
30
2.000020
70
192
0
VERTEX
8
TABLE
10
-45.092072
20
20.853157
30
2.000020
70
192
0
VERTEX
8
TABLE
10
-45.232246
20
20.213623
30
2.000020
70
192
0
VERTEX
8
TABLE
10
-45.539677
20
19.604383
30
2.000020
70
192
0
VERTEX
8
TABLE
10
-46.002392
20
19.058849
30
2.000020
70
192
0
VERTEX
8
TABLE
10
-120.625458
20
-18.628590
30
2.000001
70
192
0
VERTEX
8
TABLE
10
-118.256676
20
-22.731440
30
2.000001
70
192
0
VERTEX
8
TABLE
10
-118.937630
20
-23.050343
30
2.000001
70
192
0
VERTEX
8
TABLE
10
-119.641434
20
-23.178299
30
2.000001
70
192
0
VERTEX
8
TABLE
10
-120.322739
20
-23.139906
30
2.000001
70
192
0
VERTEX
8
TABLE
10
-120.946678
20
-22.941542
30
2.000001
70
192
0
VERTEX
8
TABLE
10
-121.478470
20
-22.589472
30
2.000001
70
192
0
VERTEX
8
TABLE
10
-121.883255
20
-22.090031
30
2.000001
70
192
0
VERTEX
8
TABLE
10
-122.113403
20
-21.489735
30
2.000001
70
192
0
VERTEX
8
TABLE
10
-122.152397
20
-20.853176
30
2.000001
70
192
0
VERTEX
8
TABLE
10
-122.012238
20
-20.213615
30
2.000001
70
192
0
VERTEX
8
TABLE
10
-121.704819
20
-19.604418
30
2.000001
70
192
0
VERTEX
8
TABLE
10
-121.242111
20
-19.058857
30
2.000001
70
192
0
VERTEX
8
TABLE
10
-46.619049
20
18.628574
30
0.000020
70
192
0
VERTEX
8
TABLE
10
-48.987839
20
22.731438
30
0.000020
70
192
0
VERTEX
8
TABLE
10
-48.306885
20
23.050341
30
0.000020
70
192
0
VERTEX
8
TABLE
10
-47.603062
20
23.178270
30
0.000020
70
192
0
VERTEX
8
TABLE
10
-46.921745
20
23.139921
30
0.000020
70
192
0
VERTEX
8
TABLE
10
-46.297806
20
22.941549
30
0.000020
70
192
0
VERTEX
8
TABLE
10
-45.766033
20
22.589464
30
0.000020
70
192
0
VERTEX
8
TABLE
10
-45.361252
20
22.090023
30
0.000020
70
192
0
VERTEX
8
TABLE
10
-45.131100
20
21.489727
30
0.000020
70
192
0
VERTEX
8
TABLE
10
-45.092072
20
20.853157
30
0.000020
70
192
0
VERTEX
8
TABLE
10
-45.232246
20
20.213623
30
0.000020
70
192
0
VERTEX
8
TABLE
10
-45.539677
20
19.604383
30
0.000020
70
192
0
VERTEX
8
TABLE
10
-46.002392
20
19.058849
30
0.000020
70
192
0
VERTEX
8
TABLE
10
-120.625458
20
-18.628590
30
0.000001
70
192
0
VERTEX
8
TABLE
10
-118.256676
20
-22.731440
30
0.000002
70
192
0
VERTEX
8
TABLE
10
-118.937630
20
-23.050343
30
0.000002
70
192
0
VERTEX
8
TABLE
10
-119.641434
20
-23.178299
30
0.000002
70
192
0
VERTEX
8
TABLE
10
-120.322739
20
-23.139906
30
0.000002
70
192
0
VERTEX
8
TABLE
10
-120.946678
20
-22.941542
30
0.000002
70
192
0
VERTEX
8
TABLE
10
-121.478470
20
-22.589472
30
0.000002
70
192
0
VERTEX
8
TABLE
10
-121.883255
20
-22.090031
30
0.000002
70
192
0
VERTEX
8
TABLE
10
-122.113411
20
-21.489735
30
0.000002
70
192
0
VERTEX
8
TABLE
10
-122.152397
20
-20.853176
30
0.000002
70
192
0
VERTEX
8
TABLE
10
-122.012238
20
-20.213615
30
0.000001
70
192
0
VERTEX
8
TABLE
10
-121.704819
20
-19.604418
30
0.000001
70
192
0
VERTEX
8
TABLE
10
-121.242111
20
-19.058857
30
0.000001
70
192
0
VERTEX
8
TABLE
10
147.000000
20
57.000011
30
76.353012
70
192
0
VERTEX
8
TABLE
10
146.999969
20
-57.000008
30
76.353027
70
192
0
VERTEX
8
TABLE
10
-147.000000
20
-57.000011
30
76.353035
70
192
0
VERTEX
8
TABLE
10
-146.999985
20
57.000008
30
76.353027
70
192
0
VERTEX
8
TABLE
10
146.999985
20
57.000004
30
66.014519
70
192
0
VERTEX
8
TABLE
10
146.999954
20
-57.000008
30
66.014534
70
192
0
VERTEX
8
TABLE
10
-146.999985
20
-57.000015
30
66.014542
70
192
0
VERTEX
8
TABLE
10
-146.999969
20
57.000004
30
66.014534
70
192
0
VERTEX
8
TABLE
10
147.000000
20
57.000004
30
66.014587
70
192
0
VERTEX
8
TABLE
10
-146.999985
20
57.000004
30
66.014572
70
192
0
VERTEX
8
TABLE
10
-147.000000
20
-57.000015
30
66.014542
70
192
0
VERTEX
8
TABLE
10
146.999969
20
-57.000008
30
66.014565
70
192
0
VERTEX
8
TABLE
10
147.882477
20
-57.825508
30
66.014565
70
192
0
VERTEX
8
TABLE
10
-147.882507
20
-57.825516
30
66.014542
70
192
0
VERTEX
8
TABLE
10
-147.882492
20
57.825535
30
66.014572
70
192
0
VERTEX
8
TABLE
10
147.882507
20
57.825535
30
66.014587
70
192
0
VERTEX
8
TABLE
10
147.000000
20
57.000004
30
68.514587
70
192
0
VERTEX
8
TABLE
10
-146.999985
20
57.000004
30
68.514572
70
192
0
VERTEX
8
TABLE
10
-147.000000
20
-57.000015
30
68.514542
70
192
0
VERTEX
8
TABLE
10
146.999969
20
-57.000008
30
68.514565
70
192
0
VERTEX
8
TABLE
10
148.999969
20
-59.000008
30
68.514565
70
192
0
VERTEX
8
TABLE
10
-149.000000
20
-59.000015
30
68.514542
70
192
0
VERTEX
8
TABLE
10
-148.999985
20
59.000004
30
68.514572
70
192
0
VERTEX
8
TABLE
10
149.000000
20
59.000004
30
68.514587
70
192
0
VERTEX
8
TABLE
10
147.000000
20
57.000004
30
71.014587
70
192
0
VERTEX
8
TABLE
10
-146.999985
20
57.000004
30
71.014572
70
192
0
VERTEX
8
TABLE
10
-147.000000
20
-57.000015
30
71.014549
70
192
0
VERTEX
8
TABLE
10
146.999969
20
-57.000008
30
71.014565
70
192
0
VERTEX
8
TABLE
10
148.999969
20
-59.000008
30
71.014565
70
192
0
VERTEX
8
TABLE
10
-149.000000
20
-59.000015
30
71.014549
70
192
0
VERTEX
8
TABLE
10
-148.999985
20
59.000004
30
71.014572
70
192
0
VERTEX
8
TABLE
10
149.000000
20
59.000004
30
71.014587
70
192
0
VERTEX
8
TABLE
10
147.000000
20
57.000011
30
76.353012
70
192
0
VERTEX
8
TABLE
10
-146.999985
20
57.000008
30
76.353027
70
192
0
VERTEX
8
TABLE
10
-147.000000
20
-57.000011
30
76.353035
70
192
0
VERTEX
8
TABLE
10
146.999969
20
-57.000008
30
76.353027
70
192
0
VERTEX
8
TABLE
10
147.882477
20
-57.825539
30
76.353027
70
192
0
VERTEX
8
TABLE
10
-147.882507
20
-57.825542
30
76.353035
70
192
0
VERTEX
8
TABLE
10
-147.882492
20
57.825539
30
76.353027
70
192
0
VERTEX
8
TABLE
10
147.882507
20
57.825542
30
76.353012
70
192
0
VERTEX
8
TABLE
10
147.000000
20
57.000004
30
73.853012
70
192
0
VERTEX
8
TABLE
10
-146.999985
20
57.000004
30
73.853027
70
192
0
VERTEX
8
TABLE
10
-147.000000
20
-57.000015
30
73.853035
70
192
0
VERTEX
8
TABLE
10
146.999969
20
-57.000008
30
73.853027
70
192
0
VERTEX
8
TABLE
10
148.999969
20
-59.000008
30
73.853027
70
192
0
VERTEX
8
TABLE
10
-149.000000
20
-59.000011
30
73.853035
70
192
0
VERTEX
8
TABLE
10
-148.999985
20
59.000008
30
73.853027
70
192
0
VERTEX
8
TABLE
10
149.000000
20
59.000008
30
73.853012
70
192
0
VERTEX
8
TABLE
10
147.000000
20
57.000004
30
71.353012
70
192
0
VERTEX
8
TABLE
10
-146.999985
20
57.000004
30
71.353027
70
192
0
VERTEX
8
TABLE
10
-147.000000
20
-57.000015
30
71.353035
70
192
0
VERTEX
8
TABLE
10
146.999969
20
-57.000008
30
71.353027
70
192
0
VERTEX
8
TABLE
10
148.999969
20
-59.000008
30
71.353027
70
192
0
VERTEX
8
TABLE
10
-149.000000
20
-59.000015
30
71.353035
70
192
0
VERTEX
8
TABLE
10
-148.999985
20
59.000004
30
71.353027
70
192
0
VERTEX
8
TABLE
10
149.000000
20
59.000004
30
71.353012
70
192
0
VERTEX
8
TABLE
10
0
20
0
30
0
70
128
71
-2
72
29
73
3
0
VERTEX
8
TABLE
10
0
20
0
30
0
70
128
71
2
72
28
73
-29
0
VERTEX
8
TABLE
10
0
20
0
30
0
70
128
71
-3
72
30
73
4
0
VERTEX
8
TABLE
10
0
20
0
30
0
70
128
71
3
72
29
73
-30
0
VERTEX
8
TABLE
10
0
20
0
30
0
70
128
71
-4
72
31
73
5
0
VERTEX
8
TABLE
10
0
20
0
30
0
70
128
71
4
72
30
73
-31
0
VERTEX
8
TABLE
10
0
20
0
30
0
70
128
71
-5
72
32
73
6
0
VERTEX
8
TABLE
10
0
20
0
30
0
70
128
71
5
72
31
73
-32
0
VERTEX
8
TABLE
10
0
20
0
30
0
70
128
71
-6
72
33
73
7
0
VERTEX
8
TABLE
10
0
20
0
30
0
70
128
71
6
72
32
73
-33
0
VERTEX
8
TABLE
10
0
20
0
30
0
70
128
71
-7
72
34
73
8
0
VERTEX
8
TABLE
10
0
20
0
30
0
70
128
71
7
72
33
73
-34
0
VERTEX
8
TABLE
10
0
20
0
30
0
70
128
71
-8
72
35
73
9
0
VERTEX
8
TABLE
10
0
20
0
30
0
70
128
71
8
72
34
73
-35
0
VERTEX
8
TABLE
10
0
20
0
30
0
70
128
71
-9
72
36
73
10
0
VERTEX
8
TABLE
10
0
20
0
30
0
70
128
71
9
72
35
73
-36
0
VERTEX
8
TABLE
10
0
20
0
30
0
70
128
71
-10
72
37
73
11
0
VERTEX
8
TABLE
10
0
20
0
30
0
70
128
71
10
72
36
73
-37
0
VERTEX
8
TABLE
10
0
20
0
30
0
70
128
71
-11
72
38
73
12
0
VERTEX
8
TABLE
10
0
20
0
30
0
70
128
71
11
72
37
73
-38
0
VERTEX
8
TABLE
10
0
20
0
30
0
70
128
71
-12
72
39
73
13
0
VERTEX
8
TABLE
10
0
20
0
30
0
70
128
71
12
72
38
73
-39
0
VERTEX
8
TABLE
10
0
20
0
30
0
70
128
71
-13
72
27
73
1
0
VERTEX
8
TABLE
10
0
20
0
30
0
70
128
71
13
72
39
73
-27
0
VERTEX
8
TABLE
10
0
20
0
30
0
70
128
71
-15
72
42
73
16
0
VERTEX
8
TABLE
10
0
20
0
30
0
70
128
71
15
72
41
73
-42
0
VERTEX
8
TABLE
10
0
20
0
30
0
70
128
71
-16
72
43
73
17
0
VERTEX
8
TABLE
10
0
20
0
30
0
70
128
71
16
72
42
73
-43
0
VERTEX
8
TABLE
10
0
20
0
30
0
70
128
71
-17
72
44
73
18
0
VERTEX
8
TABLE
10
0
20
0
30
0
70
128
71
17
72
43
73
-44
0
VERTEX
8
TABLE
10
0
20
0
30
0
70
128
71
-18
72
45
73
19
0
VERTEX
8
TABLE
10
0
20
0
30
0
70
128
71
18
72
44
73
-45
0
VERTEX
8
TABLE
10
0
20
0
30
0
70
128
71
-19
72
46
73
20
0
VERTEX
8
TABLE
10
0
20
0
30
0
70
128
71
19
72
45
73
-46
0
VERTEX
8
TABLE
10
0
20
0
30
0
70
128
71
-20
72
47
73
21
0
VERTEX
8
TABLE
10
0
20
0
30
0
70
128
71
20
72
46
73
-47
0
VERTEX
8
TABLE
10
0
20
0
30
0
70
128
71
-21
72
48
73
22
0
VERTEX
8
TABLE
10
0
20
0
30
0
70
128
71
21
72
47
73
-48
0
VERTEX
8
TABLE
10
0
20
0
30
0
70
128
71
-22
72
49
73
23
0
VERTEX
8
TABLE
10
0
20
0
30
0
70
128
71
22
72
48
73
-49
0
VERTEX
8
TABLE
10
0
20
0
30
0
70
128
71
-23
72
50
73
24
0
VERTEX
8
TABLE
10
0
20
0
30
0
70
128
71
23
72
49
73
-50
0
VERTEX
8
TABLE
10
0
20
0
30
0
70
128
71
-24
72
51
73
25
0
VERTEX
8
TABLE
10
0
20
0
30
0
70
128
71
24
72
50
73
-51
0
VERTEX
8
TABLE
10
0
20
0
30
0
70
128
71
-25
72
52
73
26
0
VERTEX
8
TABLE
10
0
20
0
30
0
70
128
71
25
72
51
73
-52
0
VERTEX
8
TABLE
10
0
20
0
30
0
70
128
71
-26
72
40
73
14
0
VERTEX
8
TABLE
10
0
20
0
30
0
70
128
71
26
72
52
73
-40
0
VERTEX
8
TABLE
10
0
20
0
30
0
70
128
71
-1
72
41
73
15
0
VERTEX
8
TABLE
10
0
20
0
30
0
70
128
71
1
72
27
73
-41
0
VERTEX
8
TABLE
10
0
20
0
30
0
70
128
71
-14
72
28
73
2
0
VERTEX
8
TABLE
10
0
20
0
30
0
70
128
71
14
72
40
73
-28
0
VERTEX
8
TABLE
10
0
20
0
30
0
70
128
71
-74
72
-53
73
-78
0
VERTEX
8
TABLE
10
0
20
0
30
0
70
128
71
55
72
-54
73
56
0
VERTEX
8
TABLE
10
0
20
0
30
0
70
128
71
57
72
-56
73
58
0
VERTEX
8
TABLE
10
0
20
0
30
0
70
128
71
59
72
-58
73
60
0
VERTEX
8
TABLE
10
0
20
0
30
0
70
128
71
61
72
-60
73
62
0
VERTEX
8
TABLE
10
0
20
0
30
0
70
128
71
63
72
-62
73
64
0
VERTEX
8
TABLE
10
0
20
0
30
0
70
128
71
65
72
-64
73
53
0
VERTEX
8
TABLE
10
0
20
0
30
0
70
128
71
67
72
-53
73
68
0
VERTEX
8
TABLE
10
0
20
0
30
0
70
128
71
69
72
-68
73
70
0
VERTEX
8
TABLE
10
0
20
0
30
0
70
128
71
71
72
-70
73
72
0
VERTEX
8
TABLE
10
0
20
0
30
0
70
128
71
73
72
-72
73
74
0
VERTEX
8
TABLE
10
0
20
0
30
0
70
128
71
75
72
-74
73
76
0
VERTEX
8
TABLE
10
0
20
0
30
0
70
128
71
77
72
-76
73
78
0
VERTEX
8
TABLE
10
0
20
0
30
0
70
128
71
66
72
-78
73
54
0
VERTEX
8
TABLE
10
0
20
0
30
0
70
128
71
-56
72
-54
73
-58
0
VERTEX
8
TABLE
10
0
20
0
30
0
70
128
71
-60
72
-58
73
-62
0
VERTEX
8
TABLE
10
0
20
0
30
0
70
128
71
-64
72
-62
73
-53
0
VERTEX
8
TABLE
10
0
20
0
30
0
70
128
71
-68
72
-53
73
-70
0
VERTEX
8
TABLE
10
0
20
0
30
0
70
128
71
-72
72
-70
73
-74
0
VERTEX
8
TABLE
10
0
20
0
30
0
70
128
71
-76
72
-74
73
-78
0
VERTEX
8
TABLE
10
0
20
0
30
0
70
128
71
-54
72
-78
73
-58
0
VERTEX
8
TABLE
10
0
20
0
30
0
70
128
71
-62
72
-58
73
-53
0
VERTEX
8
TABLE
10
0
20
0
30
0
70
128
71
-70
72
-53
73
-74
0
VERTEX
8
TABLE
10
0
20
0
30
0
70
128
71
-58
72
-78
73
-53
0
VERTEX
8
TABLE
10
0
20
0
30
0
70
128
71
-28
72
55
73
29
0
VERTEX
8
TABLE
10
0
20
0
30
0
70
128
71
-55
72
28
73
54
0
VERTEX
8
TABLE
10
0
20
0
30
0
70
128
71
-29
72
56
73
30
0
VERTEX
8
TABLE
10
0
20
0
30
0
70
128
71
-56
72
29
73
55
0
VERTEX
8
TABLE
10
0
20
0
30
0
70
128
71
-30
72
57
73
31
0
VERTEX
8
TABLE
10
0
20
0
30
0
70
128
71
-57
72
30
73
56
0
VERTEX
8
TABLE
10
0
20
0
30
0
70
128
71
-31
72
58
73
32
0
VERTEX
8
TABLE
10
0
20
0
30
0
70
128
71
-58
72
31
73
57
0
VERTEX
8
TABLE
10
0
20
0
30
0
70
128
71
-32
72
59
73
33
0
VERTEX
8
TABLE
10
0
20
0
30
0
70
128
71
-59
72
32
73
58
0
VERTEX
8
TABLE
10
0
20
0
30
0
70
128
71
-33
72
60
73
34
0
VERTEX
8
TABLE
10
0
20
0
30
0
70
128
71
-60
72
33
73
59
0
VERTEX
8
TABLE
10
0
20
0
30
0
70
128
71
-34
72
61
73
35
0
VERTEX
8
TABLE
10
0
20
0
30
0
70
128
71
-61
72
34
73
60
0
VERTEX
8
TABLE
10
0
20
0
30
0
70
128
71
-35
72
62
73
36
0
VERTEX
8
TABLE
10
0
20
0
30
0
70
128
71
-62
72
35
73
61
0
VERTEX
8
TABLE
10
0
20
0
30
0
70
128
71
-36
72
63
73
37
0
VERTEX
8
TABLE
10
0
20
0
30
0
70
128
71
-63
72
36
73
62
0
VERTEX
8
TABLE
10
0
20
0
30
0
70
128
71
-37
72
64
73
38
0
VERTEX
8
TABLE
10
0
20
0
30
0
70
128
71
-64
72
37
73
63
0
VERTEX
8
TABLE
10
0
20
0
30
0
70
128
71
-38
72
65
73
39
0
VERTEX
8
TABLE
10
0
20
0
30
0
70
128
71
-65
72
38
73
64
0
VERTEX
8
TABLE
10
0
20
0
30
0
70
128
71
-39
72
53
73
27
0
VERTEX
8
TABLE
10
0
20
0
30
0
70
128
71
-53
72
39
73
65
0
VERTEX
8
TABLE
10
0
20
0
30
0
70
128
71
-41
72
68
73
42
0
VERTEX
8
TABLE
10
0
20
0
30
0
70
128
71
-68
72
41
73
67
0
VERTEX
8
TABLE
10
0
20
0
30
0
70
128
71
-42
72
69
73
43
0
VERTEX
8
TABLE
10
0
20
0
30
0
70
128
71
-69
72
42
73
68
0
VERTEX
8
TABLE
10
0
20
0
30
0
70
128
71
-43
72
70
73
44
0
VERTEX
8
TABLE
10
0
20
0
30
0
70
128
71
-70
72
43
73
69
0
VERTEX
8
TABLE
10
0
20
0
30
0
70
128
71
-44
72
71
73
45
0
VERTEX
8
TABLE
10
0
20
0
30
0
70
128
71
-71
72
44
73
70
0
VERTEX
8
TABLE
10
0
20
0
30
0
70
128
71
-45
72
72
73
46
0
VERTEX
8
TABLE
10
0
20
0
30
0
70
128
71
-72
72
45
73
71
0
VERTEX
8
TABLE
10
0
20
0
30
0
70
128
71
-46
72
73
73
47
0
VERTEX
8
TABLE
10
0
20
0
30
0
70
128
71
-73
72
46
73
72
0
VERTEX
8
TABLE
10
0
20
0
30
0
70
128
71
-47
72
74
73
48
0
VERTEX
8
TABLE
10
0
20
0
30
0
70
128
71
-74
72
47
73
73
0
VERTEX
8
TABLE
10
0
20
0
30
0
70
128
71
-48
72
75
73
49
0
VERTEX
8
TABLE
10
0
20
0
30
0
70
128
71
-75
72
48
73
74
0
VERTEX
8
TABLE
10
0
20
0
30
0
70
128
71
-49
72
76
73
50
0
VERTEX
8
TABLE
10
0
20
0
30
0
70
128
71
-76
72
49
73
75
0
VERTEX
8
TABLE
10
0
20
0
30
0
70
128
71
-50
72
77
73
51
0
VERTEX
8
TABLE
10
0
20
0
30
0
70
128
71
-77
72
50
73
76
0
VERTEX
8
TABLE
10
0
20
0
30
0
70
128
71
-51
72
78
73
52
0
VERTEX
8
TABLE
10
0
20
0
30
0
70
128
71
-78
72
51
73
77
0
VERTEX
8
TABLE
10
0
20
0
30
0
70
128
71
-52
72
66
73
40
0
VERTEX
8
TABLE
10
0
20
0
30
0
70
128
71
-66
72
52
73
78
0
VERTEX
8
TABLE
10
0
20
0
30
0
70
128
71
-27
72
67
73
41
0
VERTEX
8
TABLE
10
0
20
0
30
0
70
128
71
-67
72
27
73
53
0
VERTEX
8
TABLE
10
0
20
0
30
0
70
128
71
-40
72
54
73
28
0
VERTEX
8
TABLE
10
0
20
0
30
0
70
128
71
-54
72
40
73
66
0
VERTEX
8
TABLE
10
0
20
0
30
0
70
128
71
-80
72
107
73
81
0
VERTEX
8
TABLE
10
0
20
0
30
0
70
128
71
80
72
106
73
-107
0
VERTEX
8
TABLE
10
0
20
0
30
0
70
128
71
-81
72
108
73
82
0
VERTEX
8
TABLE
10
0
20
0
30
0
70
128
71
81
72
107
73
-108
0
VERTEX
8
TABLE
10
0
20
0
30
0
70
128
71
-82
72
109
73
83
0
VERTEX
8
TABLE
10
0
20
0
30
0
70
128
71
82
72
108
73
-109
0
VERTEX
8
TABLE
10
0
20
0
30
0
70
128
71
-83
72
110
73
84
0
VERTEX
8
TABLE
10
0
20
0
30
0
70
128
71
83
72
109
73
-110
0
VERTEX
8
TABLE
10
0
20
0
30
0
70
128
71
-84
72
111
73
85
0
VERTEX
8
TABLE
10
0
20
0
30
0
70
128
71
84
72
110
73
-111
0
VERTEX
8
TABLE
10
0
20
0
30
0
70
128
71
-85
72
112
73
86
0
VERTEX
8
TABLE
10
0
20
0
30
0
70
128
71
85
72
111
73
-112
0
VERTEX
8
TABLE
10
0
20
0
30
0
70
128
71
-86
72
113
73
87
0
VERTEX
8
TABLE
10
0
20
0
30
0
70
128
71
86
72
112
73
-113
0
VERTEX
8
TABLE
10
0
20
0
30
0
70
128
71
-87
72
114
73
88
0
VERTEX
8
TABLE
10
0
20
0
30
0
70
128
71
87
72
113
73
-114
0
VERTEX
8
TABLE
10
0
20
0
30
0
70
128
71
-88
72
115
73
89
0
VERTEX
8
TABLE
10
0
20
0
30
0
70
128
71
88
72
114
73
-115
0
VERTEX
8
TABLE
10
0
20
0
30
0
70
128
71
-89
72
116
73
90
0
VERTEX
8
TABLE
10
0
20
0
30
0
70
128
71
89
72
115
73
-116
0
VERTEX
8
TABLE
10
0
20
0
30
0
70
128
71
-90
72
117
73
91
0
VERTEX
8
TABLE
10
0
20
0
30
0
70
128
71
90
72
116
73
-117
0
VERTEX
8
TABLE
10
0
20
0
30
0
70
128
71
-91
72
105
73
79
0
VERTEX
8
TABLE
10
0
20
0
30
0
70
128
71
91
72
117
73
-105
0
VERTEX
8
TABLE
10
0
20
0
30
0
70
128
71
-93
72
120
73
94
0
VERTEX
8
TABLE
10
0
20
0
30
0
70
128
71
93
72
119
73
-120
0
VERTEX
8
TABLE
10
0
20
0
30
0
70
128
71
-94
72
121
73
95
0
VERTEX
8
TABLE
10
0
20
0
30
0
70
128
71
94
72
120
73
-121
0
VERTEX
8
TABLE
10
0
20
0
30
0
70
128
71
-95
72
122
73
96
0
VERTEX
8
TABLE
10
0
20
0
30
0
70
128
71
95
72
121
73
-122
0
VERTEX
8
TABLE
10
0
20
0
30
0
70
128
71
-96
72
123
73
97
0
VERTEX
8
TABLE
10
0
20
0
30
0
70
128
71
96
72
122
73
-123
0
VERTEX
8
TABLE
10
0
20
0
30
0
70
128
71
-97
72
124
73
98
0
VERTEX
8
TABLE
10
0
20
0
30
0
70
128
71
97
72
123
73
-124
0
VERTEX
8
TABLE
10
0
20
0
30
0
70
128
71
-98
72
125
73
99
0
VERTEX
8
TABLE
10
0
20
0
30
0
70
128
71
98
72
124
73
-125
0
VERTEX
8
TABLE
10
0
20
0
30
0
70
128
71
-99
72
126
73
100
0
VERTEX
8
TABLE
10
0
20
0
30
0
70
128
71
99
72
125
73
-126
0
VERTEX
8
TABLE
10
0
20
0
30
0
70
128
71
-100
72
127
73
101
0
VERTEX
8
TABLE
10
0
20
0
30
0
70
128
71
100
72
126
73
-127
0
VERTEX
8
TABLE
10
0
20
0
30
0
70
128
71
-101
72
128
73
102
0
VERTEX
8
TABLE
10
0
20
0
30
0
70
128
71
101
72
127
73
-128
0
VERTEX
8
TABLE
10
0
20
0
30
0
70
128
71
-102
72
129
73
103
0
VERTEX
8
TABLE
10
0
20
0
30
0
70
128
71
102
72
128
73
-129
0
VERTEX
8
TABLE
10
0
20
0
30
0
70
128
71
-103
72
130
73
104
0
VERTEX
8
TABLE
10
0
20
0
30
0
70
128
71
103
72
129
73
-130
0
VERTEX
8
TABLE
10
0
20
0
30
0
70
128
71
-104
72
118
73
92
0
VERTEX
8
TABLE
10
0
20
0
30
0
70
128
71
104
72
130
73
-118
0
VERTEX
8
TABLE
10
0
20
0
30
0
70
128
71
-79
72
119
73
93
0
VERTEX
8
TABLE
10
0
20
0
30
0
70
128
71
79
72
105
73
-119
0
VERTEX
8
TABLE
10
0
20
0
30
0
70
128
71
-92
72
106
73
80
0
VERTEX
8
TABLE
10
0
20
0
30
0
70
128
71
92
72
118
73
-106
0
VERTEX
8
TABLE
10
0
20
0
30
0
70
128
71
-152
72
-131
73
-156
0
VERTEX
8
TABLE
10
0
20
0
30
0
70
128
71
133
72
-132
73
134
0
VERTEX
8
TABLE
10
0
20
0
30
0
70
128
71
135
72
-134
73
136
0
VERTEX
8
TABLE
10
0
20
0
30
0
70
128
71
137
72
-136
73
138
0
VERTEX
8
TABLE
10
0
20
0
30
0
70
128
71
139
72
-138
73
140
0
VERTEX
8
TABLE
10
0
20
0
30
0
70
128
71
141
72
-140
73
142
0
VERTEX
8
TABLE
10
0
20
0
30
0
70
128
71
143
72
-142
73
131
0
VERTEX
8
TABLE
10
0
20
0
30
0
70
128
71
145
72
-131
73
146
0
VERTEX
8
TABLE
10
0
20
0
30
0
70
128
71
147
72
-146
73
148
0
VERTEX
8
TABLE
10
0
20
0
30
0
70
128
71
149
72
-148
73
150
0
VERTEX
8
TABLE
10
0
20
0
30
0
70
128
71
151
72
-150
73
152
0
VERTEX
8
TABLE
10
0
20
0
30
0
70
128
71
153
72
-152
73
154
0
VERTEX
8
TABLE
10
0
20
0
30
0
70
128
71
155
72
-154
73
156
0
VERTEX
8
TABLE
10
0
20
0
30
0
70
128
71
144
72
-156
73
132
0
VERTEX
8
TABLE
10
0
20
0
30
0
70
128
71
-134
72
-132
73
-136
0
VERTEX
8
TABLE
10
0
20
0
30
0
70
128
71
-138
72
-136
73
-140
0
VERTEX
8
TABLE
10
0
20
0
30
0
70
128
71
-142
72
-140
73
-131
0
VERTEX
8
TABLE
10
0
20
0
30
0
70
128
71
-146
72
-131
73
-148
0
VERTEX
8
TABLE
10
0
20
0
30
0
70
128
71
-150
72
-148
73
-152
0
VERTEX
8
TABLE
10
0
20
0
30
0
70
128
71
-154
72
-152
73
-156
0
VERTEX
8
TABLE
10
0
20
0
30
0
70
128
71
-132
72
-156
73
-136
0
VERTEX
8
TABLE
10
0
20
0
30
0
70
128
71
-140
72
-136
73
-131
0
VERTEX
8
TABLE
10
0
20
0
30
0
70
128
71
-148
72
-131
73
-152
0
VERTEX
8
TABLE
10
0
20
0
30
0
70
128
71
-136
72
-156
73
-131
0
VERTEX
8
TABLE
10
0
20
0
30
0
70
128
71
-106
72
133
73
107
0
VERTEX
8
TABLE
10
0
20
0
30
0
70
128
71
-133
72
106
73
132
0
VERTEX
8
TABLE
10
0
20
0
30
0
70
128
71
-107
72
134
73
108
0
VERTEX
8
TABLE
10
0
20
0
30
0
70
128
71
-134
72
107
73
133
0
VERTEX
8
TABLE
10
0
20
0
30
0
70
128
71
-108
72
135
73
109
0
VERTEX
8
TABLE
10
0
20
0
30
0
70
128
71
-135
72
108
73
134
0
VERTEX
8
TABLE
10
0
20
0
30
0
70
128
71
-109
72
136
73
110
0
VERTEX
8
TABLE
10
0
20
0
30
0
70
128
71
-136
72
109
73
135
0
VERTEX
8
TABLE
10
0
20
0
30
0
70
128
71
-110
72
137
73
111
0
VERTEX
8
TABLE
10
0
20
0
30
0
70
128
71
-137
72
110
73
136
0
VERTEX
8
TABLE
10
0
20
0
30
0
70
128
71
-111
72
138
73
112
0
VERTEX
8
TABLE
10
0
20
0
30
0
70
128
71
-138
72
111
73
137
0
VERTEX
8
TABLE
10
0
20
0
30
0
70
128
71
-112
72
139
73
113
0
VERTEX
8
TABLE
10
0
20
0
30
0
70
128
71
-139
72
112
73
138
0
VERTEX
8
TABLE
10
0
20
0
30
0
70
128
71
-113
72
140
73
114
0
VERTEX
8
TABLE
10
0
20
0
30
0
70
128
71
-140
72
113
73
139
0
VERTEX
8
TABLE
10
0
20
0
30
0
70
128
71
-114
72
141
73
115
0
VERTEX
8
TABLE
10
0
20
0
30
0
70
128
71
-141
72
114
73
140
0
VERTEX
8
TABLE
10
0
20
0
30
0
70
128
71
-115
72
142
73
116
0
VERTEX
8
TABLE
10
0
20
0
30
0
70
128
71
-142
72
115
73
141
0
VERTEX
8
TABLE
10
0
20
0
30
0
70
128
71
-116
72
143
73
117
0
VERTEX
8
TABLE
10
0
20
0
30
0
70
128
71
-143
72
116
73
142
0
VERTEX
8
TABLE
10
0
20
0
30
0
70
128
71
-117
72
131
73
105
0
VERTEX
8
TABLE
10
0
20
0
30
0
70
128
71
-131
72
117
73
143
0
VERTEX
8
TABLE
10
0
20
0
30
0
70
128
71
-119
72
146
73
120
0
VERTEX
8
TABLE
10
0
20
0
30
0
70
128
71
-146
72
119
73
145
0
VERTEX
8
TABLE
10
0
20
0
30
0
70
128
71
-120
72
147
73
121
0
VERTEX
8
TABLE
10
0
20
0
30
0
70
128
71
-147
72
120
73
146
0
VERTEX
8
TABLE
10
0
20
0
30
0
70
128
71
-121
72
148
73
122
0
VERTEX
8
TABLE
10
0
20
0
30
0
70
128
71
-148
72
121
73
147
0
VERTEX
8
TABLE
10
0
20
0
30
0
70
128
71
-122
72
149
73
123
0
VERTEX
8
TABLE
10
0
20
0
30
0
70
128
71
-149
72
122
73
148
0
VERTEX
8
TABLE
10
0
20
0
30
0
70
128
71
-123
72
150
73
124
0
VERTEX
8
TABLE
10
0
20
0
30
0
70
128
71
-150
72
123
73
149
0
VERTEX
8
TABLE
10
0
20
0
30
0
70
128
71
-124
72
151
73
125
0
VERTEX
8
TABLE
10
0
20
0
30
0
70
128
71
-151
72
124
73
150
0
VERTEX
8
TABLE
10
0
20
0
30
0
70
128
71
-125
72
152
73
126
0
VERTEX
8
TABLE
10
0
20
0
30
0
70
128
71
-152
72
125
73
151
0
VERTEX
8
TABLE
10
0
20
0
30
0
70
128
71
-126
72
153
73
127
0
VERTEX
8
TABLE
10
0
20
0
30
0
70
128
71
-153
72
126
73
152
0
VERTEX
8
TABLE
10
0
20
0
30
0
70
128
71
-127
72
154
73
128
0
VERTEX
8
TABLE
10
0
20
0
30
0
70
128
71
-154
72
127
73
153
0
VERTEX
8
TABLE
10
0
20
0
30
0
70
128
71
-128
72
155
73
129
0
VERTEX
8
TABLE
10
0
20
0
30
0
70
128
71
-155
72
128
73
154
0
VERTEX
8
TABLE
10
0
20
0
30
0
70
128
71
-129
72
156
73
130
0
VERTEX
8
TABLE
10
0
20
0
30
0
70
128
71
-156
72
129
73
155
0
VERTEX
8
TABLE
10
0
20
0
30
0
70
128
71
-130
72
144
73
118
0
VERTEX
8
TABLE
10
0
20
0
30
0
70
128
71
-144
72
130
73
156
0
VERTEX
8
TABLE
10
0
20
0
30
0
70
128
71
-105
72
145
73
119
0
VERTEX
8
TABLE
10
0
20
0
30
0
70
128
71
-145
72
105
73
131
0
VERTEX
8
TABLE
10
0
20
0
30
0
70
128
71
-118
72
132
73
106
0
VERTEX
8
TABLE
10
0
20
0
30
0
70
128
71
-132
72
118
73
144
0
VERTEX
8
TABLE
10
0
20
0
30
0
70
128
71
-158
72
185
73
159
0
VERTEX
8
TABLE
10
0
20
0
30
0
70
128
71
158
72
184
73
-185
0
VERTEX
8
TABLE
10
0
20
0
30
0
70
128
71
-159
72
186
73
160
0
VERTEX
8
TABLE
10
0
20
0
30
0
70
128
71
159
72
185
73
-186
0
VERTEX
8
TABLE
10
0
20
0
30
0
70
128
71
-160
72
187
73
161
0
VERTEX
8
TABLE
10
0
20
0
30
0
70
128
71
160
72
186
73
-187
0
VERTEX
8
TABLE
10
0
20
0
30
0
70
128
71
-161
72
188
73
162
0
VERTEX
8
TABLE
10
0
20
0
30
0
70
128
71
161
72
187
73
-188
0
VERTEX
8
TABLE
10
0
20
0
30
0
70
128
71
-162
72
189
73
163
0
VERTEX
8
TABLE
10
0
20
0
30
0
70
128
71
162
72
188
73
-189
0
VERTEX
8
TABLE
10
0
20
0
30
0
70
128
71
-163
72
190
73
164
0
VERTEX
8
TABLE
10
0
20
0
30
0
70
128
71
163
72
189
73
-190
0
VERTEX
8
TABLE
10
0
20
0
30
0
70
128
71
-164
72
191
73
165
0
VERTEX
8
TABLE
10
0
20
0
30
0
70
128
71
164
72
190
73
-191
0
VERTEX
8
TABLE
10
0
20
0
30
0
70
128
71
-165
72
192
73
166
0
VERTEX
8
TABLE
10
0
20
0
30
0
70
128
71
165
72
191
73
-192
0
VERTEX
8
TABLE
10
0
20
0
30
0
70
128
71
-166
72
193
73
167
0
VERTEX
8
TABLE
10
0
20
0
30
0
70
128
71
166
72
192
73
-193
0
VERTEX
8
TABLE
10
0
20
0
30
0
70
128
71
-167
72
194
73
168
0
VERTEX
8
TABLE
10
0
20
0
30
0
70
128
71
167
72
193
73
-194
0
VERTEX
8
TABLE
10
0
20
0
30
0
70
128
71
-168
72
195
73
169
0
VERTEX
8
TABLE
10
0
20
0
30
0
70
128
71
168
72
194
73
-195
0
VERTEX
8
TABLE
10
0
20
0
30
0
70
128
71
-169
72
183
73
157
0
VERTEX
8
TABLE
10
0
20
0
30
0
70
128
71
169
72
195
73
-183
0
VERTEX
8
TABLE
10
0
20
0
30
0
70
128
71
-171
72
198
73
172
0
VERTEX
8
TABLE
10
0
20
0
30
0
70
128
71
171
72
197
73
-198
0
VERTEX
8
TABLE
10
0
20
0
30
0
70
128
71
-172
72
199
73
173
0
VERTEX
8
TABLE
10
0
20
0
30
0
70
128
71
172
72
198
73
-199
0
VERTEX
8
TABLE
10
0
20
0
30
0
70
128
71
-173
72
200
73
174
0
VERTEX
8
TABLE
10
0
20
0
30
0
70
128
71
173
72
199
73
-200
0
VERTEX
8
TABLE
10
0
20
0
30
0
70
128
71
-174
72
201
73
175
0
VERTEX
8
TABLE
10
0
20
0
30
0
70
128
71
174
72
200
73
-201
0
VERTEX
8
TABLE
10
0
20
0
30
0
70
128
71
-175
72
202
73
176
0
VERTEX
8
TABLE
10
0
20
0
30
0
70
128
71
175
72
201
73
-202
0
VERTEX
8
TABLE
10
0
20
0
30
0
70
128
71
-176
72
203
73
177
0
VERTEX
8
TABLE
10
0
20
0
30
0
70
128
71
176
72
202
73
-203
0
VERTEX
8
TABLE
10
0
20
0
30
0
70
128
71
-177
72
204
73
178
0
VERTEX
8
TABLE
10
0
20
0
30
0
70
128
71
177
72
203
73
-204
0
VERTEX
8
TABLE
10
0
20
0
30
0
70
128
71
-178
72
205
73
179
0
VERTEX
8
TABLE
10
0
20
0
30
0
70
128
71
178
72
204
73
-205
0
VERTEX
8
TABLE
10
0
20
0
30
0
70
128
71
-179
72
206
73
180
0
VERTEX
8
TABLE
10
0
20
0
30
0
70
128
71
179
72
205
73
-206
0
VERTEX
8
TABLE
10
0
20
0
30
0
70
128
71
-180
72
207
73
181
0
VERTEX
8
TABLE
10
0
20
0
30
0
70
128
71
180
72
206
73
-207
0
VERTEX
8
TABLE
10
0
20
0
30
0
70
128
71
-181
72
208
73
182
0
VERTEX
8
TABLE
10
0
20
0
30
0
70
128
71
181
72
207
73
-208
0
VERTEX
8
TABLE
10
0
20
0
30
0
70
128
71
-182
72
196
73
170
0
VERTEX
8
TABLE
10
0
20
0
30
0
70
128
71
182
72
208
73
-196
0
VERTEX
8
TABLE
10
0
20
0
30
0
70
128
71
-157
72
197
73
171
0
VERTEX
8
TABLE
10
0
20
0
30
0
70
128
71
157
72
183
73
-197
0
VERTEX
8
TABLE
10
0
20
0
30
0
70
128
71
-170
72
184
73
158
0
VERTEX
8
TABLE
10
0
20
0
30
0
70
128
71
170
72
196
73
-184
0
VERTEX
8
TABLE
10
0
20
0
30
0
70
128
71
-230
72
-209
73
-234
0
VERTEX
8
TABLE
10
0
20
0
30
0
70
128
71
211
72
-210
73
212
0
VERTEX
8
TABLE
10
0
20
0
30
0
70
128
71
213
72
-212
73
214
0
VERTEX
8
TABLE
10
0
20
0
30
0
70
128
71
215
72
-214
73
216
0
VERTEX
8
TABLE
10
0
20
0
30
0
70
128
71
217
72
-216
73
218
0
VERTEX
8
TABLE
10
0
20
0
30
0
70
128
71
219
72
-218
73
220
0
VERTEX
8
TABLE
10
0
20
0
30
0
70
128
71
221
72
-220
73
209
0
VERTEX
8
TABLE
10
0
20
0
30
0
70
128
71
223
72
-209
73
224
0
VERTEX
8
TABLE
10
0
20
0
30
0
70
128
71
225
72
-224
73
226
0
VERTEX
8
TABLE
10
0
20
0
30
0
70
128
71
227
72
-226
73
228
0
VERTEX
8
TABLE
10
0
20
0
30
0
70
128
71
229
72
-228
73
230
0
VERTEX
8
TABLE
10
0
20
0
30
0
70
128
71
231
72
-230
73
232
0
VERTEX
8
TABLE
10
0
20
0
30
0
70
128
71
233
72
-232
73
234
0
VERTEX
8
TABLE
10
0
20
0
30
0
70
128
71
222
72
-234
73
210
0
VERTEX
8
TABLE
10
0
20
0
30
0
70
128
71
-212
72
-210
73
-214
0
VERTEX
8
TABLE
10
0
20
0
30
0
70
128
71
-216
72
-214
73
-218
0
VERTEX
8
TABLE
10
0
20
0
30
0
70
128
71
-220
72
-218
73
-209
0
VERTEX
8
TABLE
10
0
20
0
30
0
70
128
71
-224
72
-209
73
-226
0
VERTEX
8
TABLE
10
0
20
0
30
0
70
128
71
-228
72
-226
73
-230
0
VERTEX
8
TABLE
10
0
20
0
30
0
70
128
71
-232
72
-230
73
-234
0
VERTEX
8
TABLE
10
0
20
0
30
0
70
128
71
-210
72
-234
73
-214
0
VERTEX
8
TABLE
10
0
20
0
30
0
70
128
71
-218
72
-214
73
-209
0
VERTEX
8
TABLE
10
0
20
0
30
0
70
128
71
-226
72
-209
73
-230
0
VERTEX
8
TABLE
10
0
20
0
30
0
70
128
71
-214
72
-234
73
-209
0
VERTEX
8
TABLE
10
0
20
0
30
0
70
128
71
-184
72
211
73
185
0
VERTEX
8
TABLE
10
0
20
0
30
0
70
128
71
-211
72
184
73
210
0
VERTEX
8
TABLE
10
0
20
0
30
0
70
128
71
-185
72
212
73
186
0
VERTEX
8
TABLE
10
0
20
0
30
0
70
128
71
-212
72
185
73
211
0
VERTEX
8
TABLE
10
0
20
0
30
0
70
128
71
-186
72
213
73
187
0
VERTEX
8
TABLE
10
0
20
0
30
0
70
128
71
-213
72
186
73
212
0
VERTEX
8
TABLE
10
0
20
0
30
0
70
128
71
-187
72
214
73
188
0
VERTEX
8
TABLE
10
0
20
0
30
0
70
128
71
-214
72
187
73
213
0
VERTEX
8
TABLE
10
0
20
0
30
0
70
128
71
-188
72
215
73
189
0
VERTEX
8
TABLE
10
0
20
0
30
0
70
128
71
-215
72
188
73
214
0
VERTEX
8
TABLE
10
0
20
0
30
0
70
128
71
-189
72
216
73
190
0
VERTEX
8
TABLE
10
0
20
0
30
0
70
128
71
-216
72
189
73
215
0
VERTEX
8
TABLE
10
0
20
0
30
0
70
128
71
-190
72
217
73
191
0
VERTEX
8
TABLE
10
0
20
0
30
0
70
128
71
-217
72
190
73
216
0
VERTEX
8
TABLE
10
0
20
0
30
0
70
128
71
-191
72
218
73
192
0
VERTEX
8
TABLE
10
0
20
0
30
0
70
128
71
-218
72
191
73
217
0
VERTEX
8
TABLE
10
0
20
0
30
0
70
128
71
-192
72
219
73
193
0
VERTEX
8
TABLE
10
0
20
0
30
0
70
128
71
-219
72
192
73
218
0
VERTEX
8
TABLE
10
0
20
0
30
0
70
128
71
-193
72
220
73
194
0
VERTEX
8
TABLE
10
0
20
0
30
0
70
128
71
-220
72
193
73
219
0
VERTEX
8
TABLE
10
0
20
0
30
0
70
128
71
-194
72
221
73
195
0
VERTEX
8
TABLE
10
0
20
0
30
0
70
128
71
-221
72
194
73
220
0
VERTEX
8
TABLE
10
0
20
0
30
0
70
128
71
-195
72
209
73
183
0
VERTEX
8
TABLE
10
0
20
0
30
0
70
128
71
-209
72
195
73
221
0
VERTEX
8
TABLE
10
0
20
0
30
0
70
128
71
-197
72
224
73
198
0
VERTEX
8
TABLE
10
0
20
0
30
0
70
128
71
-224
72
197
73
223
0
VERTEX
8
TABLE
10
0
20
0
30
0
70
128
71
-198
72
225
73
199
0
VERTEX
8
TABLE
10
0
20
0
30
0
70
128
71
-225
72
198
73
224
0
VERTEX
8
TABLE
10
0
20
0
30
0
70
128
71
-199
72
226
73
200
0
VERTEX
8
TABLE
10
0
20
0
30
0
70
128
71
-226
72
199
73
225
0
VERTEX
8
TABLE
10
0
20
0
30
0
70
128
71
-200
72
227
73
201
0
VERTEX
8
TABLE
10
0
20
0
30
0
70
128
71
-227
72
200
73
226
0
VERTEX
8
TABLE
10
0
20
0
30
0
70
128
71
-201
72
228
73
202
0
VERTEX
8
TABLE
10
0
20
0
30
0
70
128
71
-228
72
201
73
227
0
VERTEX
8
TABLE
10
0
20
0
30
0
70
128
71
-202
72
229
73
203
0
VERTEX
8
TABLE
10
0
20
0
30
0
70
128
71
-229
72
202
73
228
0
VERTEX
8
TABLE
10
0
20
0
30
0
70
128
71
-203
72
230
73
204
0
VERTEX
8
TABLE
10
0
20
0
30
0
70
128
71
-230
72
203
73
229
0
VERTEX
8
TABLE
10
0
20
0
30
0
70
128
71
-204
72
231
73
205
0
VERTEX
8
TABLE
10
0
20
0
30
0
70
128
71
-231
72
204
73
230
0
VERTEX
8
TABLE
10
0
20
0
30
0
70
128
71
-205
72
232
73
206
0
VERTEX
8
TABLE
10
0
20
0
30
0
70
128
71
-232
72
205
73
231
0
VERTEX
8
TABLE
10
0
20
0
30
0
70
128
71
-206
72
233
73
207
0
VERTEX
8
TABLE
10
0
20
0
30
0
70
128
71
-233
72
206
73
232
0
VERTEX
8
TABLE
10
0
20
0
30
0
70
128
71
-207
72
234
73
208
0
VERTEX
8
TABLE
10
0
20
0
30
0
70
128
71
-234
72
207
73
233
0
VERTEX
8
TABLE
10
0
20
0
30
0
70
128
71
-208
72
222
73
196
0
VERTEX
8
TABLE
10
0
20
0
30
0
70
128
71
-222
72
208
73
234
0
VERTEX
8
TABLE
10
0
20
0
30
0
70
128
71
-183
72
223
73
197
0
VERTEX
8
TABLE
10
0
20
0
30
0
70
128
71
-223
72
183
73
209
0
VERTEX
8
TABLE
10
0
20
0
30
0
70
128
71
-196
72
210
73
184
0
VERTEX
8
TABLE
10
0
20
0
30
0
70
128
71
-210
72
196
73
222
0
VERTEX
8
TABLE
10
0
20
0
30
0
70
128
71
236
72
237
73
-263
0
VERTEX
8
TABLE
10
0
20
0
30
0
70
128
71
-236
72
263
73
262
0
VERTEX
8
TABLE
10
0
20
0
30
0
70
128
71
237
72
238
73
-264
0
VERTEX
8
TABLE
10
0
20
0
30
0
70
128
71
-237
72
264
73
263
0
VERTEX
8
TABLE
10
0
20
0
30
0
70
128
71
238
72
239
73
-265
0
VERTEX
8
TABLE
10
0
20
0
30
0
70
128
71
-238
72
265
73
264
0
VERTEX
8
TABLE
10
0
20
0
30
0
70
128
71
239
72
240
73
-266
0
VERTEX
8
TABLE
10
0
20
0
30
0
70
128
71
-239
72
266
73
265
0
VERTEX
8
TABLE
10
0
20
0
30
0
70
128
71
240
72
241
73
-267
0
VERTEX
8
TABLE
10
0
20
0
30
0
70
128
71
-240
72
267
73
266
0
VERTEX
8
TABLE
10
0
20
0
30
0
70
128
71
241
72
242
73
-268
0
VERTEX
8
TABLE
10
0
20
0
30
0
70
128
71
-241
72
268
73
267
0
VERTEX
8
TABLE
10
0
20
0
30
0
70
128
71
242
72
243
73
-269
0
VERTEX
8
TABLE
10
0
20
0
30
0
70
128
71
-242
72
269
73
268
0
VERTEX
8
TABLE
10
0
20
0
30
0
70
128
71
243
72
244
73
-270
0
VERTEX
8
TABLE
10
0
20
0
30
0
70
128
71
-243
72
270
73
269
0
VERTEX
8
TABLE
10
0
20
0
30
0
70
128
71
244
72
245
73
-271
0
VERTEX
8
TABLE
10
0
20
0
30
0
70
128
71
-244
72
271
73
270
0
VERTEX
8
TABLE
10
0
20
0
30
0
70
128
71
245
72
246
73
-272
0
VERTEX
8
TABLE
10
0
20
0
30
0
70
128
71
-245
72
272
73
271
0
VERTEX
8
TABLE
10
0
20
0
30
0
70
128
71
246
72
247
73
-273
0
VERTEX
8
TABLE
10
0
20
0
30
0
70
128
71
-246
72
273
73
272
0
VERTEX
8
TABLE
10
0
20
0
30
0
70
128
71
247
72
235
73
-261
0
VERTEX
8
TABLE
10
0
20
0
30
0
70
128
71
-247
72
261
73
273
0
VERTEX
8
TABLE
10
0
20
0
30
0
70
128
71
249
72
250
73
-276
0
VERTEX
8
TABLE
10
0
20
0
30
0
70
128
71
-249
72
276
73
275
0
VERTEX
8
TABLE
10
0
20
0
30
0
70
128
71
250
72
251
73
-277
0
VERTEX
8
TABLE
10
0
20
0
30
0
70
128
71
-250
72
277
73
276
0
VERTEX
8
TABLE
10
0
20
0
30
0
70
128
71
251
72
252
73
-278
0
VERTEX
8
TABLE
10
0
20
0
30
0
70
128
71
-251
72
278
73
277
0
VERTEX
8
TABLE
10
0
20
0
30
0
70
128
71
252
72
253
73
-279
0
VERTEX
8
TABLE
10
0
20
0
30
0
70
128
71
-252
72
279
73
278
0
VERTEX
8
TABLE
10
0
20
0
30
0
70
128
71
253
72
254
73
-280
0
VERTEX
8
TABLE
10
0
20
0
30
0
70
128
71
-253
72
280
73
279
0
VERTEX
8
TABLE
10
0
20
0
30
0
70
128
71
254
72
255
73
-281
0
VERTEX
8
TABLE
10
0
20
0
30
0
70
128
71
-254
72
281
73
280
0
VERTEX
8
TABLE
10
0
20
0
30
0
70
128
71
255
72
256
73
-282
0
VERTEX
8
TABLE
10
0
20
0
30
0
70
128
71
-255
72
282
73
281
0
VERTEX
8
TABLE
10
0
20
0
30
0
70
128
71
256
72
257
73
-283
0
VERTEX
8
TABLE
10
0
20
0
30
0
70
128
71
-256
72
283
73
282
0
VERTEX
8
TABLE
10
0
20
0
30
0
70
128
71
257
72
258
73
-284
0
VERTEX
8
TABLE
10
0
20
0
30
0
70
128
71
-257
72
284
73
283
0
VERTEX
8
TABLE
10
0
20
0
30
0
70
128
71
258
72
259
73
-285
0
VERTEX
8
TABLE
10
0
20
0
30
0
70
128
71
-258
72
285
73
284
0
VERTEX
8
TABLE
10
0
20
0
30
0
70
128
71
259
72
260
73
-286
0
VERTEX
8
TABLE
10
0
20
0
30
0
70
128
71
-259
72
286
73
285
0
VERTEX
8
TABLE
10
0
20
0
30
0
70
128
71
260
72
248
73
-274
0
VERTEX
8
TABLE
10
0
20
0
30
0
70
128
71
-260
72
274
73
286
0
VERTEX
8
TABLE
10
0
20
0
30
0
70
128
71
235
72
249
73
-275
0
VERTEX
8
TABLE
10
0
20
0
30
0
70
128
71
-235
72
275
73
261
0
VERTEX
8
TABLE
10
0
20
0
30
0
70
128
71
248
72
236
73
-262
0
VERTEX
8
TABLE
10
0
20
0
30
0
70
128
71
-248
72
262
73
274
0
VERTEX
8
TABLE
10
0
20
0
30
0
70
128
71
-308
72
-312
73
-287
0
VERTEX
8
TABLE
10
0
20
0
30
0
70
128
71
289
72
-290
73
288
0
VERTEX
8
TABLE
10
0
20
0
30
0
70
128
71
291
72
-292
73
290
0
VERTEX
8
TABLE
10
0
20
0
30
0
70
128
71
293
72
-294
73
292
0
VERTEX
8
TABLE
10
0
20
0
30
0
70
128
71
295
72
-296
73
294
0
VERTEX
8
TABLE
10
0
20
0
30
0
70
128
71
297
72
-298
73
296
0
VERTEX
8
TABLE
10
0
20
0
30
0
70
128
71
299
72
-287
73
298
0
VERTEX
8
TABLE
10
0
20
0
30
0
70
128
71
301
72
-302
73
287
0
VERTEX
8
TABLE
10
0
20
0
30
0
70
128
71
303
72
-304
73
302
0
VERTEX
8
TABLE
10
0
20
0
30
0
70
128
71
305
72
-306
73
304
0
VERTEX
8
TABLE
10
0
20
0
30
0
70
128
71
307
72
-308
73
306
0
VERTEX
8
TABLE
10
0
20
0
30
0
70
128
71
309
72
-310
73
308
0
VERTEX
8
TABLE
10
0
20
0
30
0
70
128
71
311
72
-312
73
310
0
VERTEX
8
TABLE
10
0
20
0
30
0
70
128
71
300
72
-288
73
312
0
VERTEX
8
TABLE
10
0
20
0
30
0
70
128
71
-290
72
-292
73
-288
0
VERTEX
8
TABLE
10
0
20
0
30
0
70
128
71
-294
72
-296
73
-292
0
VERTEX
8
TABLE
10
0
20
0
30
0
70
128
71
-298
72
-287
73
-296
0
VERTEX
8
TABLE
10
0
20
0
30
0
70
128
71
-302
72
-304
73
-287
0
VERTEX
8
TABLE
10
0
20
0
30
0
70
128
71
-306
72
-308
73
-304
0
VERTEX
8
TABLE
10
0
20
0
30
0
70
128
71
-310
72
-312
73
-308
0
VERTEX
8
TABLE
10
0
20
0
30
0
70
128
71
-288
72
-292
73
-312
0
VERTEX
8
TABLE
10
0
20
0
30
0
70
128
71
-296
72
-287
73
-292
0
VERTEX
8
TABLE
10
0
20
0
30
0
70
128
71
-304
72
-308
73
-287
0
VERTEX
8
TABLE
10
0
20
0
30
0
70
128
71
-292
72
-287
73
-312
0
VERTEX
8
TABLE
10
0
20
0
30
0
70
128
71
262
72
263
73
-289
0
VERTEX
8
TABLE
10
0
20
0
30
0
70
128
71
289
72
288
73
-262
0
VERTEX
8
TABLE
10
0
20
0
30
0
70
128
71
263
72
264
73
-290
0
VERTEX
8
TABLE
10
0
20
0
30
0
70
128
71
290
72
289
73
-263
0
VERTEX
8
TABLE
10
0
20
0
30
0
70
128
71
264
72
265
73
-291
0
VERTEX
8
TABLE
10
0
20
0
30
0
70
128
71
291
72
290
73
-264
0
VERTEX
8
TABLE
10
0
20
0
30
0
70
128
71
265
72
266
73
-292
0
VERTEX
8
TABLE
10
0
20
0
30
0
70
128
71
292
72
291
73
-265
0
VERTEX
8
TABLE
10
0
20
0
30
0
70
128
71
266
72
267
73
-293
0
VERTEX
8
TABLE
10
0
20
0
30
0
70
128
71
293
72
292
73
-266
0
VERTEX
8
TABLE
10
0
20
0
30
0
70
128
71
267
72
268
73
-294
0
VERTEX
8
TABLE
10
0
20
0
30
0
70
128
71
294
72
293
73
-267
0
VERTEX
8
TABLE
10
0
20
0
30
0
70
128
71
268
72
269
73
-295
0
VERTEX
8
TABLE
10
0
20
0
30
0
70
128
71
295
72
294
73
-268
0
VERTEX
8
TABLE
10
0
20
0
30
0
70
128
71
269
72
270
73
-296
0
VERTEX
8
TABLE
10
0
20
0
30
0
70
128
71
296
72
295
73
-269
0
VERTEX
8
TABLE
10
0
20
0
30
0
70
128
71
270
72
271
73
-297
0
VERTEX
8
TABLE
10
0
20
0
30
0
70
128
71
297
72
296
73
-270
0
VERTEX
8
TABLE
10
0
20
0
30
0
70
128
71
271
72
272
73
-298
0
VERTEX
8
TABLE
10
0
20
0
30
0
70
128
71
298
72
297
73
-271
0
VERTEX
8
TABLE
10
0
20
0
30
0
70
128
71
272
72
273
73
-299
0
VERTEX
8
TABLE
10
0
20
0
30
0
70
128
71
299
72
298
73
-272
0
VERTEX
8
TABLE
10
0
20
0
30
0
70
128
71
273
72
261
73
-287
0
VERTEX
8
TABLE
10
0
20
0
30
0
70
128
71
287
72
299
73
-273
0
VERTEX
8
TABLE
10
0
20
0
30
0
70
128
71
275
72
276
73
-302
0
VERTEX
8
TABLE
10
0
20
0
30
0
70
128
71
302
72
301
73
-275
0
VERTEX
8
TABLE
10
0
20
0
30
0
70
128
71
276
72
277
73
-303
0
VERTEX
8
TABLE
10
0
20
0
30
0
70
128
71
303
72
302
73
-276
0
VERTEX
8
TABLE
10
0
20
0
30
0
70
128
71
277
72
278
73
-304
0
VERTEX
8
TABLE
10
0
20
0
30
0
70
128
71
304
72
303
73
-277
0
VERTEX
8
TABLE
10
0
20
0
30
0
70
128
71
278
72
279
73
-305
0
VERTEX
8
TABLE
10
0
20
0
30
0
70
128
71
305
72
304
73
-278
0
VERTEX
8
TABLE
10
0
20
0
30
0
70
128
71
279
72
280
73
-306
0
VERTEX
8
TABLE
10
0
20
0
30
0
70
128
71
306
72
305
73
-279
0
VERTEX
8
TABLE
10
0
20
0
30
0
70
128
71
280
72
281
73
-307
0
VERTEX
8
TABLE
10
0
20
0
30
0
70
128
71
307
72
306
73
-280
0
VERTEX
8
TABLE
10
0
20
0
30
0
70
128
71
281
72
282
73
-308
0
VERTEX
8
TABLE
10
0
20
0
30
0
70
128
71
308
72
307
73
-281
0
VERTEX
8
TABLE
10
0
20
0
30
0
70
128
71
282
72
283
73
-309
0
VERTEX
8
TABLE
10
0
20
0
30
0
70
128
71
309
72
308
73
-282
0
VERTEX
8
TABLE
10
0
20
0
30
0
70
128
71
283
72
284
73
-310
0
VERTEX
8
TABLE
10
0
20
0
30
0
70
128
71
310
72
309
73
-283
0
VERTEX
8
TABLE
10
0
20
0
30
0
70
128
71
284
72
285
73
-311
0
VERTEX
8
TABLE
10
0
20
0
30
0
70
128
71
311
72
310
73
-284
0
VERTEX
8
TABLE
10
0
20
0
30
0
70
128
71
285
72
286
73
-312
0
VERTEX
8
TABLE
10
0
20
0
30
0
70
128
71
312
72
311
73
-285
0
VERTEX
8
TABLE
10
0
20
0
30
0
70
128
71
286
72
274
73
-300
0
VERTEX
8
TABLE
10
0
20
0
30
0
70
128
71
300
72
312
73
-286
0
VERTEX
8
TABLE
10
0
20
0
30
0
70
128
71
261
72
275
73
-301
0
VERTEX
8
TABLE
10
0
20
0
30
0
70
128
71
301
72
287
73
-261
0
VERTEX
8
TABLE
10
0
20
0
30
0
70
128
71
274
72
262
73
-288
0
VERTEX
8
TABLE
10
0
20
0
30
0
70
128
71
288
72
300
73
-274
0
VERTEX
8
TABLE
10
0
20
0
30
0
70
128
71
314
72
315
73
-341
0
VERTEX
8
TABLE
10
0
20
0
30
0
70
128
71
-314
72
341
73
340
0
VERTEX
8
TABLE
10
0
20
0
30
0
70
128
71
315
72
316
73
-342
0
VERTEX
8
TABLE
10
0
20
0
30
0
70
128
71
-315
72
342
73
341
0
VERTEX
8
TABLE
10
0
20
0
30
0
70
128
71
316
72
317
73
-343
0
VERTEX
8
TABLE
10
0
20
0
30
0
70
128
71
-316
72
343
73
342
0
VERTEX
8
TABLE
10
0
20
0
30
0
70
128
71
317
72
318
73
-344
0
VERTEX
8
TABLE
10
0
20
0
30
0
70
128
71
-317
72
344
73
343
0
VERTEX
8
TABLE
10
0
20
0
30
0
70
128
71
318
72
319
73
-345
0
VERTEX
8
TABLE
10
0
20
0
30
0
70
128
71
-318
72
345
73
344
0
VERTEX
8
TABLE
10
0
20
0
30
0
70
128
71
319
72
320
73
-346
0
VERTEX
8
TABLE
10
0
20
0
30
0
70
128
71
-319
72
346
73
345
0
VERTEX
8
TABLE
10
0
20
0
30
0
70
128
71
320
72
321
73
-347
0
VERTEX
8
TABLE
10
0
20
0
30
0
70
128
71
-320
72
347
73
346
0
VERTEX
8
TABLE
10
0
20
0
30
0
70
128
71
321
72
322
73
-348
0
VERTEX
8
TABLE
10
0
20
0
30
0
70
128
71
-321
72
348
73
347
0
VERTEX
8
TABLE
10
0
20
0
30
0
70
128
71
322
72
323
73
-349
0
VERTEX
8
TABLE
10
0
20
0
30
0
70
128
71
-322
72
349
73
348
0
VERTEX
8
TABLE
10
0
20
0
30
0
70
128
71
323
72
324
73
-350
0
VERTEX
8
TABLE
10
0
20
0
30
0
70
128
71
-323
72
350
73
349
0
VERTEX
8
TABLE
10
0
20
0
30
0
70
128
71
324
72
325
73
-351
0
VERTEX
8
TABLE
10
0
20
0
30
0
70
128
71
-324
72
351
73
350
0
VERTEX
8
TABLE
10
0
20
0
30
0
70
128
71
325
72
313
73
-339
0
VERTEX
8
TABLE
10
0
20
0
30
0
70
128
71
-325
72
339
73
351
0
VERTEX
8
TABLE
10
0
20
0
30
0
70
128
71
327
72
328
73
-354
0
VERTEX
8
TABLE
10
0
20
0
30
0
70
128
71
-327
72
354
73
353
0
VERTEX
8
TABLE
10
0
20
0
30
0
70
128
71
328
72
329
73
-355
0
VERTEX
8
TABLE
10
0
20
0
30
0
70
128
71
-328
72
355
73
354
0
VERTEX
8
TABLE
10
0
20
0
30
0
70
128
71
329
72
330
73
-356
0
VERTEX
8
TABLE
10
0
20
0
30
0
70
128
71
-329
72
356
73
355
0
VERTEX
8
TABLE
10
0
20
0
30
0
70
128
71
330
72
331
73
-357
0
VERTEX
8
TABLE
10
0
20
0
30
0
70
128
71
-330
72
357
73
356
0
VERTEX
8
TABLE
10
0
20
0
30
0
70
128
71
331
72
332
73
-358
0
VERTEX
8
TABLE
10
0
20
0
30
0
70
128
71
-331
72
358
73
357
0
VERTEX
8
TABLE
10
0
20
0
30
0
70
128
71
332
72
333
73
-359
0
VERTEX
8
TABLE
10
0
20
0
30
0
70
128
71
-332
72
359
73
358
0
VERTEX
8
TABLE
10
0
20
0
30
0
70
128
71
333
72
334
73
-360
0
VERTEX
8
TABLE
10
0
20
0
30
0
70
128
71
-333
72
360
73
359
0
VERTEX
8
TABLE
10
0
20
0
30
0
70
128
71
334
72
335
73
-361
0
VERTEX
8
TABLE
10
0
20
0
30
0
70
128
71
-334
72
361
73
360
0
VERTEX
8
TABLE
10
0
20
0
30
0
70
128
71
335
72
336
73
-362
0
VERTEX
8
TABLE
10
0
20
0
30
0
70
128
71
-335
72
362
73
361
0
VERTEX
8
TABLE
10
0
20
0
30
0
70
128
71
336
72
337
73
-363
0
VERTEX
8
TABLE
10
0
20
0
30
0
70
128
71
-336
72
363
73
362
0
VERTEX
8
TABLE
10
0
20
0
30
0
70
128
71
337
72
338
73
-364
0
VERTEX
8
TABLE
10
0
20
0
30
0
70
128
71
-337
72
364
73
363
0
VERTEX
8
TABLE
10
0
20
0
30
0
70
128
71
338
72
326
73
-352
0
VERTEX
8
TABLE
10
0
20
0
30
0
70
128
71
-338
72
352
73
364
0
VERTEX
8
TABLE
10
0
20
0
30
0
70
128
71
313
72
327
73
-353
0
VERTEX
8
TABLE
10
0
20
0
30
0
70
128
71
-313
72
353
73
339
0
VERTEX
8
TABLE
10
0
20
0
30
0
70
128
71
326
72
314
73
-340
0
VERTEX
8
TABLE
10
0
20
0
30
0
70
128
71
-326
72
340
73
352
0
VERTEX
8
TABLE
10
0
20
0
30
0
70
128
71
-386
72
-390
73
-365
0
VERTEX
8
TABLE
10
0
20
0
30
0
70
128
71
367
72
-368
73
366
0
VERTEX
8
TABLE
10
0
20
0
30
0
70
128
71
369
72
-370
73
368
0
VERTEX
8
TABLE
10
0
20
0
30
0
70
128
71
371
72
-372
73
370
0
VERTEX
8
TABLE
10
0
20
0
30
0
70
128
71
373
72
-374
73
372
0
VERTEX
8
TABLE
10
0
20
0
30
0
70
128
71
375
72
-376
73
374
0
VERTEX
8
TABLE
10
0
20
0
30
0
70
128
71
377
72
-365
73
376
0
VERTEX
8
TABLE
10
0
20
0
30
0
70
128
71
379
72
-380
73
365
0
VERTEX
8
TABLE
10
0
20
0
30
0
70
128
71
381
72
-382
73
380
0
VERTEX
8
TABLE
10
0
20
0
30
0
70
128
71
383
72
-384
73
382
0
VERTEX
8
TABLE
10
0
20
0
30
0
70
128
71
385
72
-386
73
384
0
VERTEX
8
TABLE
10
0
20
0
30
0
70
128
71
387
72
-388
73
386
0
VERTEX
8
TABLE
10
0
20
0
30
0
70
128
71
389
72
-390
73
388
0
VERTEX
8
TABLE
10
0
20
0
30
0
70
128
71
378
72
-366
73
390
0
VERTEX
8
TABLE
10
0
20
0
30
0
70
128
71
-368
72
-370
73
-366
0
VERTEX
8
TABLE
10
0
20
0
30
0
70
128
71
-372
72
-374
73
-370
0
VERTEX
8
TABLE
10
0
20
0
30
0
70
128
71
-376
72
-365
73
-374
0
VERTEX
8
TABLE
10
0
20
0
30
0
70
128
71
-380
72
-382
73
-365
0
VERTEX
8
TABLE
10
0
20
0
30
0
70
128
71
-384
72
-386
73
-382
0
VERTEX
8
TABLE
10
0
20
0
30
0
70
128
71
-388
72
-390
73
-386
0
VERTEX
8
TABLE
10
0
20
0
30
0
70
128
71
-366
72
-370
73
-390
0
VERTEX
8
TABLE
10
0
20
0
30
0
70
128
71
-374
72
-365
73
-370
0
VERTEX
8
TABLE
10
0
20
0
30
0
70
128
71
-382
72
-386
73
-365
0
VERTEX
8
TABLE
10
0
20
0
30
0
70
128
71
-370
72
-365
73
-390
0
VERTEX
8
TABLE
10
0
20
0
30
0
70
128
71
340
72
341
73
-367
0
VERTEX
8
TABLE
10
0
20
0
30
0
70
128
71
367
72
366
73
-340
0
VERTEX
8
TABLE
10
0
20
0
30
0
70
128
71
341
72
342
73
-368
0
VERTEX
8
TABLE
10
0
20
0
30
0
70
128
71
368
72
367
73
-341
0
VERTEX
8
TABLE
10
0
20
0
30
0
70
128
71
342
72
343
73
-369
0
VERTEX
8
TABLE
10
0
20
0
30
0
70
128
71
369
72
368
73
-342
0
VERTEX
8
TABLE
10
0
20
0
30
0
70
128
71
343
72
344
73
-370
0
VERTEX
8
TABLE
10
0
20
0
30
0
70
128
71
370
72
369
73
-343
0
VERTEX
8
TABLE
10
0
20
0
30
0
70
128
71
344
72
345
73
-371
0
VERTEX
8
TABLE
10
0
20
0
30
0
70
128
71
371
72
370
73
-344
0
VERTEX
8
TABLE
10
0
20
0
30
0
70
128
71
345
72
346
73
-372
0
VERTEX
8
TABLE
10
0
20
0
30
0
70
128
71
372
72
371
73
-345
0
VERTEX
8
TABLE
10
0
20
0
30
0
70
128
71
346
72
347
73
-373
0
VERTEX
8
TABLE
10
0
20
0
30
0
70
128
71
373
72
372
73
-346
0
VERTEX
8
TABLE
10
0
20
0
30
0
70
128
71
347
72
348
73
-374
0
VERTEX
8
TABLE
10
0
20
0
30
0
70
128
71
374
72
373
73
-347
0
VERTEX
8
TABLE
10
0
20
0
30
0
70
128
71
348
72
349
73
-375
0
VERTEX
8
TABLE
10
0
20
0
30
0
70
128
71
375
72
374
73
-348
0
VERTEX
8
TABLE
10
0
20
0
30
0
70
128
71
349
72
350
73
-376
0
VERTEX
8
TABLE
10
0
20
0
30
0
70
128
71
376
72
375
73
-349
0
VERTEX
8
TABLE
10
0
20
0
30
0
70
128
71
350
72
351
73
-377
0
VERTEX
8
TABLE
10
0
20
0
30
0
70
128
71
377
72
376
73
-350
0
VERTEX
8
TABLE
10
0
20
0
30
0
70
128
71
351
72
339
73
-365
0
VERTEX
8
TABLE
10
0
20
0
30
0
70
128
71
365
72
377
73
-351
0
VERTEX
8
TABLE
10
0
20
0
30
0
70
128
71
353
72
354
73
-380
0
VERTEX
8
TABLE
10
0
20
0
30
0
70
128
71
380
72
379
73
-353
0
VERTEX
8
TABLE
10
0
20
0
30
0
70
128
71
354
72
355
73
-381
0
VERTEX
8
TABLE
10
0
20
0
30
0
70
128
71
381
72
380
73
-354
0
VERTEX
8
TABLE
10
0
20
0
30
0
70
128
71
355
72
356
73
-382
0
VERTEX
8
TABLE
10
0
20
0
30
0
70
128
71
382
72
381
73
-355
0
VERTEX
8
TABLE
10
0
20
0
30
0
70
128
71
356
72
357
73
-383
0
VERTEX
8
TABLE
10
0
20
0
30
0
70
128
71
383
72
382
73
-356
0
VERTEX
8
TABLE
10
0
20
0
30
0
70
128
71
357
72
358
73
-384
0
VERTEX
8
TABLE
10
0
20
0
30
0
70
128
71
384
72
383
73
-357
0
VERTEX
8
TABLE
10
0
20
0
30
0
70
128
71
358
72
359
73
-385
0
VERTEX
8
TABLE
10
0
20
0
30
0
70
128
71
385
72
384
73
-358
0
VERTEX
8
TABLE
10
0
20
0
30
0
70
128
71
359
72
360
73
-386
0
VERTEX
8
TABLE
10
0
20
0
30
0
70
128
71
386
72
385
73
-359
0
VERTEX
8
TABLE
10
0
20
0
30
0
70
128
71
360
72
361
73
-387
0
VERTEX
8
TABLE
10
0
20
0
30
0
70
128
71
387
72
386
73
-360
0
VERTEX
8
TABLE
10
0
20
0
30
0
70
128
71
361
72
362
73
-388
0
VERTEX
8
TABLE
10
0
20
0
30
0
70
128
71
388
72
387
73
-361
0
VERTEX
8
TABLE
10
0
20
0
30
0
70
128
71
362
72
363
73
-389
0
VERTEX
8
TABLE
10
0
20
0
30
0
70
128
71
389
72
388
73
-362
0
VERTEX
8
TABLE
10
0
20
0
30
0
70
128
71
363
72
364
73
-390
0
VERTEX
8
TABLE
10
0
20
0
30
0
70
128
71
390
72
389
73
-363
0
VERTEX
8
TABLE
10
0
20
0
30
0
70
128
71
364
72
352
73
-378
0
VERTEX
8
TABLE
10
0
20
0
30
0
70
128
71
378
72
390
73
-364
0
VERTEX
8
TABLE
10
0
20
0
30
0
70
128
71
339
72
353
73
-379
0
VERTEX
8
TABLE
10
0
20
0
30
0
70
128
71
379
72
365
73
-339
0
VERTEX
8
TABLE
10
0
20
0
30
0
70
128
71
352
72
340
73
-366
0
VERTEX
8
TABLE
10
0
20
0
30
0
70
128
71
366
72
378
73
-352
0
VERTEX
8
TABLE
10
0
20
0
30
0
70
128
71
392
72
393
73
-419
0
VERTEX
8
TABLE
10
0
20
0
30
0
70
128
71
-392
72
419
73
418
0
VERTEX
8
TABLE
10
0
20
0
30
0
70
128
71
393
72
394
73
-420
0
VERTEX
8
TABLE
10
0
20
0
30
0
70
128
71
-393
72
420
73
419
0
VERTEX
8
TABLE
10
0
20
0
30
0
70
128
71
394
72
395
73
-421
0
VERTEX
8
TABLE
10
0
20
0
30
0
70
128
71
-394
72
421
73
420
0
VERTEX
8
TABLE
10
0
20
0
30
0
70
128
71
395
72
396
73
-422
0
VERTEX
8
TABLE
10
0
20
0
30
0
70
128
71
-395
72
422
73
421
0
VERTEX
8
TABLE
10
0
20
0
30
0
70
128
71
396
72
397
73
-423
0
VERTEX
8
TABLE
10
0
20
0
30
0
70
128
71
-396
72
423
73
422
0
VERTEX
8
TABLE
10
0
20
0
30
0
70
128
71
397
72
398
73
-424
0
VERTEX
8
TABLE
10
0
20
0
30
0
70
128
71
-397
72
424
73
423
0
VERTEX
8
TABLE
10
0
20
0
30
0
70
128
71
398
72
399
73
-425
0
VERTEX
8
TABLE
10
0
20
0
30
0
70
128
71
-398
72
425
73
424
0
VERTEX
8
TABLE
10
0
20
0
30
0
70
128
71
399
72
400
73
-426
0
VERTEX
8
TABLE
10
0
20
0
30
0
70
128
71
-399
72
426
73
425
0
VERTEX
8
TABLE
10
0
20
0
30
0
70
128
71
400
72
401
73
-427
0
VERTEX
8
TABLE
10
0
20
0
30
0
70
128
71
-400
72
427
73
426
0
VERTEX
8
TABLE
10
0
20
0
30
0
70
128
71
401
72
402
73
-428
0
VERTEX
8
TABLE
10
0
20
0
30
0
70
128
71
-401
72
428
73
427
0
VERTEX
8
TABLE
10
0
20
0
30
0
70
128
71
402
72
403
73
-429
0
VERTEX
8
TABLE
10
0
20
0
30
0
70
128
71
-402
72
429
73
428
0
VERTEX
8
TABLE
10
0
20
0
30
0
70
128
71
403
72
391
73
-417
0
VERTEX
8
TABLE
10
0
20
0
30
0
70
128
71
-403
72
417
73
429
0
VERTEX
8
TABLE
10
0
20
0
30
0
70
128
71
405
72
406
73
-432
0
VERTEX
8
TABLE
10
0
20
0
30
0
70
128
71
-405
72
432
73
431
0
VERTEX
8
TABLE
10
0
20
0
30
0
70
128
71
406
72
407
73
-433
0
VERTEX
8
TABLE
10
0
20
0
30
0
70
128
71
-406
72
433
73
432
0
VERTEX
8
TABLE
10
0
20
0
30
0
70
128
71
407
72
408
73
-434
0
VERTEX
8
TABLE
10
0
20
0
30
0
70
128
71
-407
72
434
73
433
0
VERTEX
8
TABLE
10
0
20
0
30
0
70
128
71
408
72
409
73
-435
0
VERTEX
8
TABLE
10
0
20
0
30
0
70
128
71
-408
72
435
73
434
0
VERTEX
8
TABLE
10
0
20
0
30
0
70
128
71
409
72
410
73
-436
0
VERTEX
8
TABLE
10
0
20
0
30
0
70
128
71
-409
72
436
73
435
0
VERTEX
8
TABLE
10
0
20
0
30
0
70
128
71
410
72
411
73
-437
0
VERTEX
8
TABLE
10
0
20
0
30
0
70
128
71
-410
72
437
73
436
0
VERTEX
8
TABLE
10
0
20
0
30
0
70
128
71
411
72
412
73
-438
0
VERTEX
8
TABLE
10
0
20
0
30
0
70
128
71
-411
72
438
73
437
0
VERTEX
8
TABLE
10
0
20
0
30
0
70
128
71
412
72
413
73
-439
0
VERTEX
8
TABLE
10
0
20
0
30
0
70
128
71
-412
72
439
73
438
0
VERTEX
8
TABLE
10
0
20
0
30
0
70
128
71
413
72
414
73
-440
0
VERTEX
8
TABLE
10
0
20
0
30
0
70
128
71
-413
72
440
73
439
0
VERTEX
8
TABLE
10
0
20
0
30
0
70
128
71
414
72
415
73
-441
0
VERTEX
8
TABLE
10
0
20
0
30
0
70
128
71
-414
72
441
73
440
0
VERTEX
8
TABLE
10
0
20
0
30
0
70
128
71
415
72
416
73
-442
0
VERTEX
8
TABLE
10
0
20
0
30
0
70
128
71
-415
72
442
73
441
0
VERTEX
8
TABLE
10
0
20
0
30
0
70
128
71
416
72
404
73
-430
0
VERTEX
8
TABLE
10
0
20
0
30
0
70
128
71
-416
72
430
73
442
0
VERTEX
8
TABLE
10
0
20
0
30
0
70
128
71
391
72
405
73
-431
0
VERTEX
8
TABLE
10
0
20
0
30
0
70
128
71
-391
72
431
73
417
0
VERTEX
8
TABLE
10
0
20
0
30
0
70
128
71
404
72
392
73
-418
0
VERTEX
8
TABLE
10
0
20
0
30
0
70
128
71
-404
72
418
73
430
0
VERTEX
8
TABLE
10
0
20
0
30
0
70
128
71
-464
72
-468
73
-443
0
VERTEX
8
TABLE
10
0
20
0
30
0
70
128
71
445
72
-446
73
444
0
VERTEX
8
TABLE
10
0
20
0
30
0
70
128
71
447
72
-448
73
446
0
VERTEX
8
TABLE
10
0
20
0
30
0
70
128
71
449
72
-450
73
448
0
VERTEX
8
TABLE
10
0
20
0
30
0
70
128
71
451
72
-452
73
450
0
VERTEX
8
TABLE
10
0
20
0
30
0
70
128
71
453
72
-454
73
452
0
VERTEX
8
TABLE
10
0
20
0
30
0
70
128
71
455
72
-443
73
454
0
VERTEX
8
TABLE
10
0
20
0
30
0
70
128
71
457
72
-458
73
443
0
VERTEX
8
TABLE
10
0
20
0
30
0
70
128
71
459
72
-460
73
458
0
VERTEX
8
TABLE
10
0
20
0
30
0
70
128
71
461
72
-462
73
460
0
VERTEX
8
TABLE
10
0
20
0
30
0
70
128
71
463
72
-464
73
462
0
VERTEX
8
TABLE
10
0
20
0
30
0
70
128
71
465
72
-466
73
464
0
VERTEX
8
TABLE
10
0
20
0
30
0
70
128
71
467
72
-468
73
466
0
VERTEX
8
TABLE
10
0
20
0
30
0
70
128
71
456
72
-444
73
468
0
VERTEX
8
TABLE
10
0
20
0
30
0
70
128
71
-446
72
-448
73
-444
0
VERTEX
8
TABLE
10
0
20
0
30
0
70
128
71
-450
72
-452
73
-448
0
VERTEX
8
TABLE
10
0
20
0
30
0
70
128
71
-454
72
-443
73
-452
0
VERTEX
8
TABLE
10
0
20
0
30
0
70
128
71
-458
72
-460
73
-443
0
VERTEX
8
TABLE
10
0
20
0
30
0
70
128
71
-462
72
-464
73
-460
0
VERTEX
8
TABLE
10
0
20
0
30
0
70
128
71
-466
72
-468
73
-464
0
VERTEX
8
TABLE
10
0
20
0
30
0
70
128
71
-444
72
-448
73
-468
0
VERTEX
8
TABLE
10
0
20
0
30
0
70
128
71
-452
72
-443
73
-448
0
VERTEX
8
TABLE
10
0
20
0
30
0
70
128
71
-460
72
-464
73
-443
0
VERTEX
8
TABLE
10
0
20
0
30
0
70
128
71
-448
72
-443
73
-468
0
VERTEX
8
TABLE
10
0
20
0
30
0
70
128
71
418
72
419
73
-445
0
VERTEX
8
TABLE
10
0
20
0
30
0
70
128
71
445
72
444
73
-418
0
VERTEX
8
TABLE
10
0
20
0
30
0
70
128
71
419
72
420
73
-446
0
VERTEX
8
TABLE
10
0
20
0
30
0
70
128
71
446
72
445
73
-419
0
VERTEX
8
TABLE
10
0
20
0
30
0
70
128
71
420
72
421
73
-447
0
VERTEX
8
TABLE
10
0
20
0
30
0
70
128
71
447
72
446
73
-420
0
VERTEX
8
TABLE
10
0
20
0
30
0
70
128
71
421
72
422
73
-448
0
VERTEX
8
TABLE
10
0
20
0
30
0
70
128
71
448
72
447
73
-421
0
VERTEX
8
TABLE
10
0
20
0
30
0
70
128
71
422
72
423
73
-449
0
VERTEX
8
TABLE
10
0
20
0
30
0
70
128
71
449
72
448
73
-422
0
VERTEX
8
TABLE
10
0
20
0
30
0
70
128
71
423
72
424
73
-450
0
VERTEX
8
TABLE
10
0
20
0
30
0
70
128
71
450
72
449
73
-423
0
VERTEX
8
TABLE
10
0
20
0
30
0
70
128
71
424
72
425
73
-451
0
VERTEX
8
TABLE
10
0
20
0
30
0
70
128
71
451
72
450
73
-424
0
VERTEX
8
TABLE
10
0
20
0
30
0
70
128
71
425
72
426
73
-452
0
VERTEX
8
TABLE
10
0
20
0
30
0
70
128
71
452
72
451
73
-425
0
VERTEX
8
TABLE
10
0
20
0
30
0
70
128
71
426
72
427
73
-453
0
VERTEX
8
TABLE
10
0
20
0
30
0
70
128
71
453
72
452
73
-426
0
VERTEX
8
TABLE
10
0
20
0
30
0
70
128
71
427
72
428
73
-454
0
VERTEX
8
TABLE
10
0
20
0
30
0
70
128
71
454
72
453
73
-427
0
VERTEX
8
TABLE
10
0
20
0
30
0
70
128
71
428
72
429
73
-455
0
VERTEX
8
TABLE
10
0
20
0
30
0
70
128
71
455
72
454
73
-428
0
VERTEX
8
TABLE
10
0
20
0
30
0
70
128
71
429
72
417
73
-443
0
VERTEX
8
TABLE
10
0
20
0
30
0
70
128
71
443
72
455
73
-429
0
VERTEX
8
TABLE
10
0
20
0
30
0
70
128
71
431
72
432
73
-458
0
VERTEX
8
TABLE
10
0
20
0
30
0
70
128
71
458
72
457
73
-431
0
VERTEX
8
TABLE
10
0
20
0
30
0
70
128
71
432
72
433
73
-459
0
VERTEX
8
TABLE
10
0
20
0
30
0
70
128
71
459
72
458
73
-432
0
VERTEX
8
TABLE
10
0
20
0
30
0
70
128
71
433
72
434
73
-460
0
VERTEX
8
TABLE
10
0
20
0
30
0
70
128
71
460
72
459
73
-433
0
VERTEX
8
TABLE
10
0
20
0
30
0
70
128
71
434
72
435
73
-461
0
VERTEX
8
TABLE
10
0
20
0
30
0
70
128
71
461
72
460
73
-434
0
VERTEX
8
TABLE
10
0
20
0
30
0
70
128
71
435
72
436
73
-462
0
VERTEX
8
TABLE
10
0
20
0
30
0
70
128
71
462
72
461
73
-435
0
VERTEX
8
TABLE
10
0
20
0
30
0
70
128
71
436
72
437
73
-463
0
VERTEX
8
TABLE
10
0
20
0
30
0
70
128
71
463
72
462
73
-436
0
VERTEX
8
TABLE
10
0
20
0
30
0
70
128
71
437
72
438
73
-464
0
VERTEX
8
TABLE
10
0
20
0
30
0
70
128
71
464
72
463
73
-437
0
VERTEX
8
TABLE
10
0
20
0
30
0
70
128
71
438
72
439
73
-465
0
VERTEX
8
TABLE
10
0
20
0
30
0
70
128
71
465
72
464
73
-438
0
VERTEX
8
TABLE
10
0
20
0
30
0
70
128
71
439
72
440
73
-466
0
VERTEX
8
TABLE
10
0
20
0
30
0
70
128
71
466
72
465
73
-439
0
VERTEX
8
TABLE
10
0
20
0
30
0
70
128
71
440
72
441
73
-467
0
VERTEX
8
TABLE
10
0
20
0
30
0
70
128
71
467
72
466
73
-440
0
VERTEX
8
TABLE
10
0
20
0
30
0
70
128
71
441
72
442
73
-468
0
VERTEX
8
TABLE
10
0
20
0
30
0
70
128
71
468
72
467
73
-441
0
VERTEX
8
TABLE
10
0
20
0
30
0
70
128
71
442
72
430
73
-456
0
VERTEX
8
TABLE
10
0
20
0
30
0
70
128
71
456
72
468
73
-442
0
VERTEX
8
TABLE
10
0
20
0
30
0
70
128
71
417
72
431
73
-457
0
VERTEX
8
TABLE
10
0
20
0
30
0
70
128
71
457
72
443
73
-417
0
VERTEX
8
TABLE
10
0
20
0
30
0
70
128
71
430
72
418
73
-444
0
VERTEX
8
TABLE
10
0
20
0
30
0
70
128
71
444
72
456
73
-430
0
VERTEX
8
TABLE
10
0
20
0
30
0
70
128
71
469
72
472
73
-471
0
VERTEX
8
TABLE
10
0
20
0
30
0
70
128
71
-469
72
471
73
470
0
VERTEX
8
TABLE
10
0
20
0
30
0
70
128
71
469
72
470
73
-474
0
VERTEX
8
TABLE
10
0
20
0
30
0
70
128
71
-469
72
474
73
473
0
VERTEX
8
TABLE
10
0
20
0
30
0
70
128
71
470
72
471
73
-475
0
VERTEX
8
TABLE
10
0
20
0
30
0
70
128
71
-470
72
475
73
474
0
VERTEX
8
TABLE
10
0
20
0
30
0
70
128
71
471
72
472
73
-476
0
VERTEX
8
TABLE
10
0
20
0
30
0
70
128
71
-471
72
476
73
475
0
VERTEX
8
TABLE
10
0
20
0
30
0
70
128
71
472
72
469
73
-473
0
VERTEX
8
TABLE
10
0
20
0
30
0
70
128
71
-472
72
473
73
476
0
VERTEX
8
TABLE
10
0
20
0
30
0
70
128
71
475
72
476
73
-473
0
VERTEX
8
TABLE
10
0
20
0
30
0
70
128
71
474
72
-475
73
473
0
VERTEX
8
TABLE
10
0
20
0
30
0
70
128
71
480
72
-477
73
-481
0
VERTEX
8
TABLE
10
0
20
0
30
0
70
128
71
484
72
-481
73
-477
0
VERTEX
8
TABLE
10
0
20
0
30
0
70
128
71
483
72
-484
73
-477
0
VERTEX
8
TABLE
10
0
20
0
30
0
70
128
71
-483
72
477
73
-478
0
VERTEX
8
TABLE
10
0
20
0
30
0
70
128
71
482
72
-483
73
-478
0
VERTEX
8
TABLE
10
0
20
0
30
0
70
128
71
-482
72
478
73
-479
0
VERTEX
8
TABLE
10
0
20
0
30
0
70
128
71
481
72
-482
73
-479
0
VERTEX
8
TABLE
10
0
20
0
30
0
70
128
71
-481
72
479
73
-480
0
VERTEX
8
TABLE
10
0
20
0
30
0
70
128
71
486
72
478
73
-477
0
VERTEX
8
TABLE
10
0
20
0
30
0
70
128
71
485
72
-486
73
477
0
VERTEX
8
TABLE
10
0
20
0
30
0
70
128
71
487
72
479
73
-478
0
VERTEX
8
TABLE
10
0
20
0
30
0
70
128
71
486
72
-487
73
478
0
VERTEX
8
TABLE
10
0
20
0
30
0
70
128
71
488
72
480
73
-479
0
VERTEX
8
TABLE
10
0
20
0
30
0
70
128
71
487
72
-488
73
479
0
VERTEX
8
TABLE
10
0
20
0
30
0
70
128
71
485
72
477
73
-480
0
VERTEX
8
TABLE
10
0
20
0
30
0
70
128
71
488
72
-485
73
480
0
VERTEX
8
TABLE
10
0
20
0
30
0
70
128
71
490
72
482
73
-481
0
VERTEX
8
TABLE
10
0
20
0
30
0
70
128
71
489
72
-490
73
481
0
VERTEX
8
TABLE
10
0
20
0
30
0
70
128
71
491
72
483
73
-482
0
VERTEX
8
TABLE
10
0
20
0
30
0
70
128
71
490
72
-491
73
482
0
VERTEX
8
TABLE
10
0
20
0
30
0
70
128
71
492
72
484
73
-483
0
VERTEX
8
TABLE
10
0
20
0
30
0
70
128
71
491
72
-492
73
483
0
VERTEX
8
TABLE
10
0
20
0
30
0
70
128
71
489
72
481
73
-484
0
VERTEX
8
TABLE
10
0
20
0
30
0
70
128
71
492
72
-489
73
484
0
VERTEX
8
TABLE
10
0
20
0
30
0
70
128
71
494
72
486
73
-485
0
VERTEX
8
TABLE
10
0
20
0
30
0
70
128
71
493
72
-494
73
485
0
VERTEX
8
TABLE
10
0
20
0
30
0
70
128
71
495
72
487
73
-486
0
VERTEX
8
TABLE
10
0
20
0
30
0
70
128
71
494
72
-495
73
486
0
VERTEX
8
TABLE
10
0
20
0
30
0
70
128
71
496
72
488
73
-487
0
VERTEX
8
TABLE
10
0
20
0
30
0
70
128
71
495
72
-496
73
487
0
VERTEX
8
TABLE
10
0
20
0
30
0
70
128
71
493
72
485
73
-488
0
VERTEX
8
TABLE
10
0
20
0
30
0
70
128
71
496
72
-493
73
488
0
VERTEX
8
TABLE
10
0
20
0
30
0
70
128
71
498
72
490
73
-489
0
VERTEX
8
TABLE
10
0
20
0
30
0
70
128
71
497
72
-498
73
489
0
VERTEX
8
TABLE
10
0
20
0
30
0
70
128
71
499
72
491
73
-490
0
VERTEX
8
TABLE
10
0
20
0
30
0
70
128
71
498
72
-499
73
490
0
VERTEX
8
TABLE
10
0
20
0
30
0
70
128
71
500
72
492
73
-491
0
VERTEX
8
TABLE
10
0
20
0
30
0
70
128
71
499
72
-500
73
491
0
VERTEX
8
TABLE
10
0
20
0
30
0
70
128
71
497
72
489
73
-492
0
VERTEX
8
TABLE
10
0
20
0
30
0
70
128
71
500
72
-497
73
492
0
VERTEX
8
TABLE
10
0
20
0
30
0
70
128
71
-497
72
493
73
-496
0
VERTEX
8
TABLE
10
0
20
0
30
0
70
128
71
-493
72
497
73
-500
0
VERTEX
8
TABLE
10
0
20
0
30
0
70
128
71
-493
72
500
73
-499
0
VERTEX
8
TABLE
10
0
20
0
30
0
70
128
71
494
72
-493
73
-499
0
VERTEX
8
TABLE
10
0
20
0
30
0
70
128
71
-494
72
499
73
-498
0
VERTEX
8
TABLE
10
0
20
0
30
0
70
128
71
495
72
-494
73
-498
0
VERTEX
8
TABLE
10
0
20
0
30
0
70
128
71
-495
72
498
73
-497
0
VERTEX
8
TABLE
10
0
20
0
30
0
70
128
71
496
72
-495
73
-497
0
VERTEX
8
TABLE
10
0
20
0
30
0
70
128
71
-505
72
501
73
-504
0
VERTEX
8
TABLE
10
0
20
0
30
0
70
128
71
-501
72
505
73
-508
0
VERTEX
8
TABLE
10
0
20
0
30
0
70
128
71
-501
72
508
73
-507
0
VERTEX
8
TABLE
10
0
20
0
30
0
70
128
71
502
72
-501
73
-507
0
VERTEX
8
TABLE
10
0
20
0
30
0
70
128
71
-502
72
507
73
-506
0
VERTEX
8
TABLE
10
0
20
0
30
0
70
128
71
503
72
-502
73
-506
0
VERTEX
8
TABLE
10
0
20
0
30
0
70
128
71
-503
72
506
73
-505
0
VERTEX
8
TABLE
10
0
20
0
30
0
70
128
71
504
72
-503
73
-505
0
VERTEX
8
TABLE
10
0
20
0
30
0
70
128
71
501
72
502
73
-510
0
VERTEX
8
TABLE
10
0
20
0
30
0
70
128
71
-501
72
510
73
509
0
VERTEX
8
TABLE
10
0
20
0
30
0
70
128
71
502
72
503
73
-511
0
VERTEX
8
TABLE
10
0
20
0
30
0
70
128
71
-502
72
511
73
510
0
VERTEX
8
TABLE
10
0
20
0
30
0
70
128
71
503
72
504
73
-512
0
VERTEX
8
TABLE
10
0
20
0
30
0
70
128
71
-503
72
512
73
511
0
VERTEX
8
TABLE
10
0
20
0
30
0
70
128
71
504
72
501
73
-509
0
VERTEX
8
TABLE
10
0
20
0
30
0
70
128
71
-504
72
509
73
512
0
VERTEX
8
TABLE
10
0
20
0
30
0
70
128
71
505
72
506
73
-514
0
VERTEX
8
TABLE
10
0
20
0
30
0
70
128
71
-505
72
514
73
513
0
VERTEX
8
TABLE
10
0
20
0
30
0
70
128
71
506
72
507
73
-515
0
VERTEX
8
TABLE
10
0
20
0
30
0
70
128
71
-506
72
515
73
514
0
VERTEX
8
TABLE
10
0
20
0
30
0
70
128
71
507
72
508
73
-516
0
VERTEX
8
TABLE
10
0
20
0
30
0
70
128
71
-507
72
516
73
515
0
VERTEX
8
TABLE
10
0
20
0
30
0
70
128
71
508
72
505
73
-513
0
VERTEX
8
TABLE
10
0
20
0
30
0
70
128
71
-508
72
513
73
516
0
VERTEX
8
TABLE
10
0
20
0
30
0
70
128
71
509
72
510
73
-518
0
VERTEX
8
TABLE
10
0
20
0
30
0
70
128
71
-509
72
518
73
517
0
VERTEX
8
TABLE
10
0
20
0
30
0
70
128
71
510
72
511
73
-519
0
VERTEX
8
TABLE
10
0
20
0
30
0
70
128
71
-510
72
519
73
518
0
VERTEX
8
TABLE
10
0
20
0
30
0
70
128
71
511
72
512
73
-520
0
VERTEX
8
TABLE
10
0
20
0
30
0
70
128
71
-511
72
520
73
519
0
VERTEX
8
TABLE
10
0
20
0
30
0
70
128
71
512
72
509
73
-517
0
VERTEX
8
TABLE
10
0
20
0
30
0
70
128
71
-512
72
517
73
520
0
VERTEX
8
TABLE
10
0
20
0
30
0
70
128
71
513
72
514
73
-522
0
VERTEX
8
TABLE
10
0
20
0
30
0
70
128
71
-513
72
522
73
521
0
VERTEX
8
TABLE
10
0
20
0
30
0
70
128
71
514
72
515
73
-523
0
VERTEX
8
TABLE
10
0
20
0
30
0
70
128
71
-514
72
523
73
522
0
VERTEX
8
TABLE
10
0
20
0
30
0
70
128
71
515
72
516
73
-524
0
VERTEX
8
TABLE
10
0
20
0
30
0
70
128
71
-515
72
524
73
523
0
VERTEX
8
TABLE
10
0
20
0
30
0
70
128
71
516
72
513
73
-521
0
VERTEX
8
TABLE
10
0
20
0
30
0
70
128
71
-516
72
521
73
524
0
VERTEX
8
TABLE
10
0
20
0
30
0
70
128
71
520
72
-517
73
-521
0
VERTEX
8
TABLE
10
0
20
0
30
0
70
128
71
524
72
-521
73
-517
0
VERTEX
8
TABLE
10
0
20
0
30
0
70
128
71
523
72
-524
73
-517
0
VERTEX
8
TABLE
10
0
20
0
30
0
70
128
71
-523
72
517
73
-518
0
VERTEX
8
TABLE
10
0
20
0
30
0
70
128
71
522
72
-523
73
-518
0
VERTEX
8
TABLE
10
0
20
0
30
0
70
128
71
-522
72
518
73
-519
0
VERTEX
8
TABLE
10
0
20
0
30
0
70
128
71
521
72
-522
73
-519
0
VERTEX
8
TABLE
10
0
20
0
30
0
70
128
71
-521
72
519
73
-520
0
SEQEND
8
TABLE
0
ENDSEC
0
EOF
